<svg xmlns="http://www.w3.org/2000/svg" xmlns:xlink="http://www.w3.org/1999/xlink" width="26.204" height="26.891" viewBox="0 0 26.204 26.891"><defs><clipPath id="clip-path"><rect id="Rectangle_226" data-name="Rectangle 226" width="26.204" height="26.891" fill="#fff"></rect></clipPath></defs><g id="Cart" transform="translate(-1702.744 -71)"><g id="Group_495" data-name="Group 495" transform="translate(1702.744 71)"><g id="Group_494" data-name="Group 494" clip-path="url(#clip-path)"><path id="Path_4740" data-name="Path 4740" d="M1.786,0A7.84,7.84,0,0,1,2.868.366,3.305,3.305,0,0,1,4.722,3.08l.035.281H5.1q8.848,0,17.7,0A3.3,3.3,0,0,1,26.17,6.181,4.916,4.916,0,0,1,26.1,7.714q-.382,2.315-.832,4.619a5.556,5.556,0,0,1-5.4,4.468c-4.359.015-8.717,0-13.076.005h-.35a3.037,3.037,0,0,0,.7,1.173,3.405,3.405,0,0,0,2.587,1.073q5.684,0,11.369,0a1.954,1.954,0,0,1,.494.043,1.113,1.113,0,0,1-.249,2.184l-.079,0c-3.938,0-7.877.022-11.815-.011A5.518,5.518,0,0,1,4.039,16.4c-.314-2.517-.6-5.037-.894-7.556-.221-1.867-.44-3.735-.669-5.6a1.054,1.054,0,0,0-1.1-.987A1.276,1.276,0,0,1,0,1.366V.893A1.316,1.316,0,0,1,.893,0ZM5.02,5.606c.1.9.2,1.761.3,2.62.237,2.015.482,4.029.707,6.045.027.242.107.3.335.295q4.634-.011,9.267,0c1.426,0,2.853.017,4.279-.011a3.266,3.266,0,0,0,3.143-2.607c.29-1.421.528-2.853.789-4.28.038-.206.076-.413.109-.62a1.123,1.123,0,0,0-1.227-1.436H5.02Z" fill="#fff"></path><path id="Path_4741" data-name="Path 4741" d="M108.572,431.261a6.512,6.512,0,0,1-.68-.252,2.235,2.235,0,0,1,1.294-4.211,2.237,2.237,0,0,1,.335,4.372c-.09.026-.177.06-.266.091Z" transform="translate(-101.061 -404.371)" fill="#fff"></path><path id="Path_4742" data-name="Path 4742" d="M321.916,431.274a6.629,6.629,0,0,1-.631-.233,2.233,2.233,0,1,1,1.558.155c-.082.022-.163.052-.244.078Z" transform="translate(-303.219 -404.384)" fill="#fff"></path></g></g></g></svg>