<svg xmlns="http://www.w3.org/2000/svg" width="864.857" height="849.496" viewBox="0 0 864.857 849.496"><path id="Union_34" data-name="Union 34" d="M287.3.861c-1.029.225-2,.774-2.988,1.072.017.855,1.115.784.658,1.749-.7,1.1-1.181.255-1.767.155l-2.168.845c-.2-.61-.389-1.216-.565-1.767-.792-.228-1.089.409-1.425.97l-1.424-.2c-.367.577-.647,1.017-.935,1.471l.7.9c-1.082.59-2.115.827-3,1.258l-.887-.361-.5.819L270.118,8.9l-.768-.418-5.595,2.179c-.38-.522.025-.648.305-.813.417-.248.937-.176,1.266-.705-.466-1.178-1.807-.475-2.617-.91-.138.228-.277.457-.418.691l-2-.223,1.667-1.651.728.343.512-.845,2.282-1.025.09-.986c-.134-.093-.225-.223-.3-.2-1.14.361-2.277.743-3.588,1.177l-.721-.275-1.026,1.151L258.724,6l-5.511,2.148c-.18-.329-.373-.679-.571-1.039-.512-.257-.429.433-.646.548-.623.635-1.348.669-1.994.993l-1.836,1.828q.052.347.1.7c.908.037.908.037,1.619-.929.592-.008.513.485.5.94-.643.827-1.524.752-2.271,1.164-.6-.51-.826-1.489-1.928-1.462l-.538.257c-.468.669-.015,1.155-.052,1.78l-.576,1.028,1.489.121c.03.292.054.524.079.763-.367.714-1.016.683-1.549.925-.68.308-1.376.546-2.064.814l-1.686.656c-.2-.887.423-.81.806-1.091.837-1.39,1.721-2.857,2.607-4.326-.68-.348-1.291.117-1.961.6-.015.316-.032.659-.05,1.008l-2.942,2.811c-.156-.271-.357-.621-.573-1-.685.394-.825,1.191-1.317,1.8l-.806-.336-1.213,1.891-1.141-.621.543-1c-.782-.414-1.553.4-2.57.61L231.3,16.538c-.571,1.128-.319,2.411-1.519,2.949-.592.231-.68-.1-.759-.427-.056-.232-.106-.461-.328-.481-.374-.036-.47-.329-.564-.621-.074-.233-.147-.464-.358-.564l-3.13,1.22c.044.638.083,1.206.124,1.777l-1.756,1.735-2.119.826c-.261.452-.641,1.112-1.018,1.768-.4-.246-.837-.578-1.456.068-.547.806-.163,1,.22,1.192a.988.988,0,0,1,.442.329c-.276.456-.551.913-.834,1.378l-1.359.53c-.676,1-.1,1.294.5,1.594a2.006,2.006,0,0,1-.318.551,8.7,8.7,0,0,1-.928.617l1.043.839c-.256.542-.466.986-.757,1.606l1.994,2.493-1.838,2.806.207,1.4a1.909,1.909,0,0,0,.217-.015c.168-.017.336-.034.366.038.156.383-.14.572-.479.678l.262,1.775-.879,1.355-.751-.3c-.665.535-.691,1.624-1.564,2.022l-.185.835-2.309.9c0,.8,0,1.48-.007,2.493l-1.97-2.475-.684,1.031-1.322.515c-.164.273-.3.5-.5.827l-2.915,1.136c-.4-.48-.556-1.151-1.176-1.378l1.263-1.211c-.9-.266-1.668.433-2.451.62l-.865-.416-1.32.514-.835-.365-.44.729a1.009,1.009,0,0,1-.634-.065.813.813,0,0,0-1.092.3c-.328.992.09,1.158.54,1.344a1.063,1.063,0,0,1,.721.614l1.175-1.553.609.331,2.133-.458-1.221,1.695c-.48.326-1.44.326-1.781,1.417-1.238-.412-1.238-.412-2.181.917l-3.586,1.4c.013.413.027.829.043,1.357l2.475-.965.6-.83c.258.142.446.243.772.42l2.914-1.135.39,1c.65.253,1.261-.125,1.9-.67-.2-.264-.4-.525-.707-.924l1.707-.757c.331-.555.593-1.218,1.451-1.13l.355.823-1.585,1.477,2.285-.464.238.885c-.658.925-1.552.816-2.326,1.253l-.619.959c-.268-.124-.541-.253-1.007-.473.023.575.039.991.053,1.309a2.029,2.029,0,0,0,1.389-.27c.5-.227.967-.452,1.419-.185l-.555,1.024,1.468.13c-.421.8-1.092.669-1.587.983a.814.814,0,0,1-.458-.184.613.613,0,0,0-.758-.08c.139.7-.569,1.123-.763,1.744l-2.867,1.117q-.4.96-.9,2.188l-1.766-.3-.481.8-4.14,1.613-.92,1.521c.792.512,1.19-.205,1.6-.9l3.6-1.4.776.422,3.735-1.455c-.182.573-.3.95-.425,1.335.682.206,1.336-.367,2.1-.57a5.813,5.813,0,0,0-.938-.783l1.381-1.318,1.4.168c-.387.683-.645,1.136-.887,1.56l-.954.372a4.026,4.026,0,0,0,.061,1.122l1.779.126-1.7,2.046,1.75-.021a27.169,27.169,0,0,1-1.65,2.6l-1.266.493c-.483.715-.033,1.193-.075,1.856l-1.264,1.182c.1.069.187.193.259.169,1.461-.484,2.919-.985,4.377-1.483.353,1.088-1.316.834-1.177,1.854l-.851-.342c-.187.055-.483.045-.62.2a13.93,13.93,0,0,1-2.915,2.776l.153,1.04c.971.067,1.834-.631,2.7-.742.048-.49-.083-1.013.59-.772a8,8,0,0,1-.59.772c-.027.118-.021.474-.14.556a12.926,12.926,0,0,1-1.422.742l-.722,1.028-2.907,1.133c.152.253.251.53.314.507,1.146-.417,2.287-.87,3.467-1.33.311.391.607.783.93,1.147.017.019.073,0,.135-.018a.21.21,0,0,1,.172.007c.048-.49-.083-1.011.59-.771a7.857,7.857,0,0,1-.59.771c-.025.115-.027.487-.131.547-.821.469-1.664.878-2.835,1.479l1.875.129.108.732c.205.043.413.176.6.109.554-.2,1.107-.416,1.66-.631l-.684,1.379-.422-.208q-.621.244-1.242.485a9.475,9.475,0,0,1-.92-.511l.89-.661c-.1-.348-.381-.424-.658-.495a.887.887,0,0,1-.528-.265c-.936.314-.778,1.649-2.056,1.7.278.261.463.418.625.6a4.974,4.974,0,0,1,.332.448,3.513,3.513,0,0,1-1.947.54c-.141.012-.284.023-.429.038.34.315.611.566.932.861l-.41.827-.046.018-.932-.153c-.759.268-.606,1.6-1.721,1.637l-.839,1.692c-.45.359-1.142.348-1.23,1.073l-1.451.107.234.659c-.43.493-1.153.8-1.306,1.532-.906.289-1.088,1.35-1.743,1.71-.673.369-.932,1.256-1.792,1.287l-.862,1.74-.892.408-.5,1.015-.865.534-1.171,2.364c.059.261.116.515.178.792l-1.295.009c.046.188.029.414.133.488a1.612,1.612,0,0,0,.474.2c.312.1.624.193.73.574a4.3,4.3,0,0,1-2.441.617c-.009.383-.017.767-.028,1.284a.546.546,0,0,1-.235.211,6.323,6.323,0,0,0-2.776,2.091l.9,1.024c-1.067.322-1.527,1.676-2.765,1.487l-.755,1.373-3.427,1.437.239.673c-.5.411-1.013.834-1.521,1.254-.13-.288-.242-.535-.353-.778a1.191,1.191,0,0,0-.7.815,1.938,1.938,0,0,1-.248.484c.087.286.174.571.257.847l-.457.923c-.128-.29-.263-.594-.377-.852l-1.4-.388q-.385-1.073-.77-2.147l.007-.073-.013.015q.046-.489.091-.977l.011.01c-.5-.647-1-1.294-1.591-2.06l-.373,2.641a1.875,1.875,0,0,0-.773.27l.528,1.473-.049.344-2.19-5.955-1.958,1.891c.438-.758.081-.141-.331.571-.822-1.007-1.5-1.842-2.2-2.692l-.782,1.482-.66-.993-3,1.726.016-.018-1.436-1.147c-.331.42-.633,1.082-1,1.2-.812.263-1.631.468-2.45.675l-.39-.362c0-.009,0-.018,0-.027l-.021.011,0,0a.013.013,0,0,0,0,0l-1.506.777c-.717-2.914-4.012-3.6-6.619-1.442q-3.69,3.052-7.425,6.037c-1.857.567-3.705,1.258-5.558,1.879-.2.066-.515.146-.559.269-.369,1.023-.8,2.051-1.221,3.079-4.153,5.311-8.333,10.6-12.442,15.946q-.346.45-.688.9l.248-2.678-.854-.161c-.6,1.214-1.208,2.428-1.9,3.814-.17-1.417-.316-2.649-.463-3.879l-.506.152-.8,8.592-.354.491-1.088-.873c.151.805.294,1.37.385,1.845l-.615.845.7-.241c.008.1.012.205.011.308a12.9,12.9,0,0,1-.7,2.479c-.381-3.616-.664-6.306-.948-8.994l-1.059.411q-.662-1.531-1.326-3.063l-.949.4c-.266,1.324-.464,2.656-.817,3.97-.454,1.694-1.033,3.375-1.558,5.061l-.007-.01-.465,5.013-.652-.045-.86-15.852-1.182,1.342c-.173-.638-.29-1.068-.407-1.494l-2.988,2.576,0-.005-1.853-2.782-2.11,2.613c-.138-.653-.278-1.314-.418-1.977q-.7,2.86-1.4,5.717l-.5-.044.292-3.149L81.246,145.6c-.809-2.122-1.327-2.047-5.093,1.337,0-.639,0-1.209,0-2a28.206,28.206,0,0,1-4.486,2.18c-3.263.905-6.546,1.5-9.82,2.281a1.378,1.378,0,0,0-.759.793c-.547,3.187-1.032,6.373-1.615,10.071.953-.871,1.339-1.225,1.747-1.6l.989,2.343,1.293-3.7c-.1,3.694-.183,7.082-.267,10.324-.064.051-.116.1-.111.111a1.055,1.055,0,0,0,.1.228c0-.113.006-.226.008-.339.062-.049.136-.1.186-.146l.2.466-.264.236c-.042-.073-.088-.144-.13-.216-.073,2.8-.142,5.49-.212,8.182l.532-.012q.785-2.765,1.572-5.529a34.234,34.234,0,0,1,.967,5.031,3.351,3.351,0,0,1-1.4,2.257,42.118,42.118,0,0,1-5.017,2l.016-.016-1.95-1q-.612,1.909-1.111,3.46c-.793-1.069-1.575-2.126-3.116-4.205l-2.047,10.6-1.481-5.963-.667,7.2c-.639-1.631-.454-3.392-.589-5.061-.05-.621-.845-1.027-1.3-1.532l.007-.006-.347.034.007,0-1.556-.178L43.936,200.42c.187-.238.47-.6.786-1a5.906,5.906,0,0,1,.8,1.922,12.117,12.117,0,0,1-.476,2.541,7.021,7.021,0,0,0-.463,4.142,2.679,2.679,0,0,1-.283.865l-.136-.391q-.376,1.057-.751,2.115l-.472-.008.4-4.352c-.846,4.058-1.59,7.766-2.428,11.469-.113.5-.7.971-1.067,1.455a8.331,8.331,0,0,1-.17-1.576c.156-2.144.369-4.3.562-6.444l.012.011-.084-.3c-.37,3.993-.83,8.826-1.262,13.657q-.028.316-.056.632l-1.939,1.993.514.264c-2.179,3.235-4.37,6.463-6.534,9.707-2.862,4.29-5.7,8.591-8.056,12.142-.409.334-.068.056.274-.223l-.018,0c1.273-1.907,2.529-3.826,3.83-5.715a11.012,11.012,0,0,1,1.2-1.27,4.146,4.146,0,0,1-.065,1.678c-1.762,3.5-3.608,6.959-5.6,10.762l2.565-3.87.407.187-.775,2.11.377-.276a2.725,2.725,0,0,1-.338.853,8.271,8.271,0,0,0-2.374,3.715,13.675,13.675,0,0,1-1.294,2.358,8.53,8.53,0,0,1-1.965,1.305c0-.471,0-.894,0-1.173L8.936,274.978l1.442.491h-.009l.273.172,0-.008c.724-.242,1.672-.258,2.13-.766a23.057,23.057,0,0,1,3.884-4.064l-4.244,6.4,5.246-4.462-5.347,9.867,5.462-2.291-1.367,3.4,2.327-.045,0-.02a29.169,29.169,0,0,1,2.929,3.778,2.885,2.885,0,0,1-.315,2.5,47.263,47.263,0,0,1-4.186,3.882q1.179-2.676,2.359-5.353l-.444-.23-5.29,7.05c.085-.045.171-.086.255-.13.023.1.045.206.068.309l-.481.314c-.015-.058-.041-.135-.061-.2l-6.674,8.894c.666-1.786.924-2.479,1.37-3.679l-2.407,1.585c-.1-.485-.19-.945-.419-2.08-1.976,3.388-3.693,6.3-5.357,9.237a1.043,1.043,0,0,0,.115.988c2.267,2.012,4.659,3.878,6.831,6a19.3,19.3,0,0,1,2.36,3.707l1.34-1.7c.942,4.435,1.333,4.712,3.44,3.24l1.244,4.085,1.856-2.8.454.168-2.632,5.442,1.677-1.51c.017,1.147.033,2.122.048,3.1l3.436-1.6.007,0,.82,3.426-.018.014.02,0,0-.01,1.345-1.1c.041.611.069,1.036.108,1.63l11.327-13.133.586.231-2.956,4.457.012-.006c-.681,1.651-1.311,3.32-2.057,4.949-.578,1.264-1.3,2.479-1.959,3.715l.54.733-.022.014.026-.008,0-.006,3.176-2.059.625.788L38.637,325a13.737,13.737,0,0,1-1.064,2.4,23.62,23.62,0,0,1-2.254,2.147l1.908-.371-5.491,8.281c.109.114.219.226.329.338l2.987-3.109c-.34,1.463-.638,2.745-.936,4.028l.835.215,3.625-5.467c.241.1.479.2.719.3l-2.122,5.963,3.667-5.53c-.618,1.751-.814,2.3-.943,2.67l3.188-2.832c-.076,1.688-.139,3.348-.159,5q-.036,2.966-.048,5.928a56.87,56.87,0,0,0-4.061,5.576c-1.654,2.67-2.318,5.907-3.4,8.9-.045.123.174.323.3.46,1.425,1.587,2.775,3.26,4.307,4.726,1.547,1.481,3.4,2.621,4.884,4.162,1.062,1.1,1.627,2.731,2.618,3.924q.121.146.247.287l.115.428a3.526,3.526,0,0,0,3.131,2.743l.047.051c.231.251.046.939.047,1.433h0l0,.016c0-.005,0-.011,0-.017l1.989-.383,0-.022,1.4,2.708,1.225-.573c-.106.516-.212,1.032-.326,1.584l3.67-1.383c-.125.776-.234,1.448-.1.622.286,1.723.352,2.122.4,2.417l5.844-4.162-2.593,4.3,2.731-1.1-.017,0,.576-.868v.018l1.544-2.371,0,.022,2.861-1.6-.745-1.157,2.08-1.228c1.063.441,1.912-.09,2.819-.8l-.112.309,2.51-1.1c-.009.088-.018.174-.025.237.111.054.231.107.355.158a1.35,1.35,0,0,0-.137.471,1.266,1.266,0,0,1-.134.463,5.945,5.945,0,0,1-.681.825l.02.07c-.718.811.1,1.823-.139,2.836l-1.5-.057L70,381.23c.528,1.054,1.592.658,2.324.971l2.129-1.537,1.452.249.89-.569-.228.974-.785.614a1.728,1.728,0,0,1-.112.514.941.941,0,0,0,.051.982l.821-.517c.152.567.306,1.138.456,1.695l-.653.474,1.955,2.637c-.106.569-.18.968-.276,1.48,1.18.351.666,1.693,1.359,2.408l-1.45.5a4.452,4.452,0,0,0,.965,2.925.406.406,0,0,1,.059.276l-.835,1.1c.724.453,1.426.767,1.665,1.533a1.152,1.152,0,0,1-1.005.187,1.872,1.872,0,0,0-.54-.023c-.137.02-.274.22-.438.361.356.176.689.342,1.1.542l-.682.6-.584,2.494c.192.409.308.659.38.811l-.251,1.072q.237.349.487.716l-.43,1.837c.711.381.339,1.243.664,1.835.317.577-.238,1.555.34,2.175-.357.683.051,1.245.087,1.843l-.639.464,1.163.69c-.409.654.186.93.329,1.421l-.417,1.785c.921.5-.1,1.563.37,2.1l.895.255.027.034-.2.873-1.368.348c.689.439,1.386.743,1.636,1.473-.193.082-.384.18-.582.244-.257.084-.519.14-.93.248,1.055.569.029,1.64.615,2.293a1.053,1.053,0,0,1,.627-.007.957.957,0,0,0,.891-.149l-.315-.93c.4-.032.775-.063,1.124-.056q.366.462.733.926l.5,0-.341,1.456c-.326-.412-.651-.825-.99-1.222-.113-.133-.379-.106-.582-.155l-.581.578c-.439-.172-.891-.351-1.682-.664.595.995,1.037,1.691,1.423,2.429.049.095-.2.411-.253.519a6.272,6.272,0,0,1-.014.9c-.733-.073-.273-.463.014-.9a.183.183,0,0,1-.151-.066c-.043-.039-.076-.079-.1-.07-.518.176-1.032.387-1.558.592-.7-.879-1.365-1.735-2.061-2.563-.038-.045-.308.149-.605.3l1.716,2.165c-.036.587-.059.947-.073,1.173a8.848,8.848,0,0,1,.713,1.219c.046.118-.2.419-.252.53a6.376,6.376,0,0,1-.015.9c-.733-.073-.273-.464.015-.9-.665-.453-.933-1.4-1.8-1.747l-.827.821a10.161,10.161,0,0,1,.625,3.566c.014.186.273.3.395.424l.954.06c-.8.81.79,1.284-.238,2.064-.907-1.026-1.814-2.054-2.733-3.07-.045-.05-.2.02-.333.037.1.529.2,1.053.285,1.527-.407.582-1.11.8-1.176,1.611l.747.942a22.865,22.865,0,0,1-.331,2.89l-1.475-.74c.028.881.05,1.577.077,2.442l-1.6-.627a5.237,5.237,0,0,0-.8.93l.563.711c-.078.46-.161.952-.288,1.693l-1.3-.434c-.05-.289-.172-.988-.294-1.692a7.844,7.844,0,0,0,1.321-.279c-.516-.488-.689-1.246-1.407-1.353l-.531,1.312-2.206-2.781-.942.039-2.125-2.68c.117-.76.258-1.536-.758-1.427-.07.5-.14,1-.234,1.674l2.444,3.082c-.059.424-.095.675-.123.875l1.7.473-.694,2.234,1.692,2.134c-.249.609.069,1.262-.517,1.8.154.309.425.278.7.245a.911.911,0,0,1,.513.033c.212.472.867.64.694,1.491l-1.337-.495-.213,1.1c-1.062.076-1.009-1.362-2.085-1.547l-.92,1.091,1.173.014c-.039.361-.078.73-.114,1.071.366.692,1.2.968,1.141,2.027l-.794.655-1.634-1.339c.155.819.254,1.343.361,1.912l-.852.553c-.79-.279-.569-.951-.48-1.56l-.945-1.349,1.22-.494c-.176-.726-.443-1.3-1.166-1.353l-1,.689-1.72-2.169-.937.039c.012-.309.026-.629.04-.956l-1.462-1.842-.944,1.137,2.117,2.669c-.085,1.52-.085,1.52,1.244,1.681-.439,1.069.378,1.466.568,1.941-.034.7-.058,1.189-.094,1.947l-1.509-1.27c-.285.013-.513.021-.74.03.01-.453.019-.906.039-1.806a1.417,1.417,0,0,1-1.023.225c-.507-.028-.974-.06-1.358.92-.019.98.937.515,1.31.914-.036.252-.071.5-.113.8l.954.035.78.983,1.014,0c.541.482.725,1.393,1.671,1.539-.1-.557-.18-1.05-.266-1.551.68.063,1.263-.443,1.922-.687l1.721,2.17c-.05.36-.085.611-.127.911l.781.984-.107,1.159L67.4,458.4l-1.66,2.125,1.363,1.719-.4.787c.477.7-.229,1.637-.021,2.366l.842.052c-.059.568-.11,1.06-.158,1.516l-1.41,1.4c.218.23.343.513-.045.774-.107.071-.337-.139-.511-.221l-1.11,1.1c-.084.847-.194,1.958-.311,3.146l-3.364,1.3c-.166.647-.284,1.111-.428,1.679l-1.448.283a6.01,6.01,0,0,1,.377.908,1.765,1.765,0,0,1-.1.6c-.71.008-1.4.019-1.492,1.148l.8,1.013c-.071.512-.142,1.015-.211,1.517a1.3,1.3,0,0,1-.6.1c-.456.006-.911.011-.984.923.1.805.689.7,1.194.659-.117.714-.235,1.432-.315,1.925l1.251,1.577.335,2.2-1.294,1.461,1.848,2.33a1.2,1.2,0,0,0,.682-.332c.275-.21.553-.42.895-.3.2.075.4-.1.6-.273.284-.244.582-.491.932-.051.661.954-.412,1.941-.679,3.136l1.863-.32c.727.6.836,1.61,1.779,1.58.069-.362.137-.717.206-1.075l1.386-.057c-.078.71-.156,1.421-.232,2.11l.911.047c.01.724-.4,1.46-.084,2.078l1.156-.614c.215,1.242.42,2.427.624,3.607l-.631.878c.247.686.456,1.335,1.268,1.319.228-1.616.457-3.229.673-4.758-.138-.4-.717-.587.044-1.261l1,1.254c.407.513.84,1,1.212,1.546.292.426.865.668.7,1.426l-.577.617-1.348-.512c-.072.409-.137.779-.2,1.113-.387.546-1.1.773-1.146,1.535l.287.441c.92.478,1.767-.261,2.618-.447.36.659,1.159.959,1.154,1.928-.294.392-.556.844-1.054.593.04-1.115.04-1.115-.756-1.459l-.553.55.34,2.313c.333.542.927.871,1.033,1.669.107.188-.425.74.183.732l1.181-.648,3.254,4.1,1.288.169c.043.583.075,1.008.1,1.4l.8.064c.826.91,1.538,1.7,2.267,2.483.05.053.213-.021.389-.044l.583-.876c-.471-.678-.892-1.288-1.256-1.814l.13-.93-.849-.009c-.106-.707-.2-1.361-.315-2.093l1.848.635c-.036.257-.071.509-.106.76.98-.036,1.652,1.116,2.836.306.075-.586-.416-.74-.606-1.122-.127-.257-.388-.531.284-.818l3.3,4.165.934-.039,1.7,2.148c-.046.33-.081.581-.126.9l1,.059c.467.733,1.187,1.361,1.714,2.31l-1.2.479c-.058.5-.114.995-.188,1.637l1.347.416c-.089.616-.262,1.281.564,1.413l1.661-1.27,1.28,1.614c.565.156,1.544-.365,1.4.861-.255,1.01-1.142.5-1.728,1.217.64.66,1.1,1.529,1.826,2.145.046.039.132.024.216.009.039-.006.076-.012.109-.014.264-.428-.027-.985.493-1.346-.16-.431-.9-.526-.455-1.307.784.436.784.436.455,1.307l1.243.366c.667.5-.347,1.908,1.057,1.939l1.407-1.4a4.649,4.649,0,0,1-.58-.769c-.048-.094.114-.369.222-.534a.309.309,0,0,1,.307,0c.219.23.407.5.607.746l.557-.553a.6.6,0,0,1,.095-.961,6.383,6.383,0,0,1,.014-.9c.733.073.273.463-.014.9.35.235.3.591-.095.961q.444.512-.15,1.067c.447,1.027,1.661.672,2.39,1.281l.67-.774c-.019-1.121-1.29-1.235-1.114-2.446l2.174.754c.011.566.018,1.026.023,1.34.575,1.175,1.735.927,2.592,1.461.08-.684.136-1.16.189-1.614l-.964-.035c-.906-.759-.666-2.063-.989-3.231.978.229,1.131,1.382,1.934,1.653,1.28-.09.562-1.574,1.367-2.015l1.117-.341c.1-.372.175-.666.3-1.125.908.435.983,1.692,2.022,1.7.255-.315.818-.5.547-1.06l-.855-.08c.1-.583.179-1.05.3-1.742l1.454,1.276c1.189-1.035,2.122-.614,3.055-.173.367-.277.815-.509.621-1.089l-.683.029c-.93-.466-1.138-1.849-2.058-2.018-.783.253-.989,1.136-1.7,1.122a3.16,3.16,0,0,1-1.31-2.354c.632.532,1.088.917,1.664,1.4l.866-1.037-1.084-1.555,1.2-.894.9,1.142c-.041.373-.082.742-.122,1.1.149.168.29.327.478.539l.976-.522,2.2.439c.39-.389.667-.664.977-.974-.337-.5-.71-.973-1.1-1.46a.784.784,0,0,1,.852-.332.626.626,0,0,0,.583-.125c.614.895.614.895-.339,1.917.3.458.638.88.973,1.3.739-.259,1.14.362,1.878.5.218-.323.467-.7.835-1.244l-1.831-.626-.352-2.324c.1-.013.253-.081.308-.031.306.275.571.6.885.863.257.215.567.254.867-.149l-1.348-1.7a4.484,4.484,0,0,1,.118-1.42c.084.114.168.228.252.341.8-.21.925.584,1.472.8.6.233.868,1.125,1.464,1.257,1.206.267.915,1.3,1.274,2l1.339.183c.227.3.343.462.459.62l2.231.169-.277,1.183,1.135,1a1.31,1.31,0,0,1-1.172.272,1.283,1.283,0,0,0-.37-.041c-.825-.509-1.523-.963-2.255-1.367-.1-.055-.376.14-.62.239-.021.266-.045.55-.068.847l1.511.285,1.419,1.913.642.049,1.877,2.584c.881-.131,1.051.731,1.771.91.574.143.89.906,1.34,1.415l1.212-.6q.7.94,1.4,1.883a3.043,3.043,0,0,1,1.467.336,2.032,2.032,0,0,0-.8,1.206c.7.373,1.4-.051,2.1-.358a1.7,1.7,0,0,0,1.675.363l.665,1.446,1.8.136,1.5,1a1.523,1.523,0,0,1-.053.524l-1.63-.34c-.613.767-1.269,1.01-1.415,1.74.315.105.628.209.959.321-1.076,1.485-2.059,2.913-2.106,4.658l1.061.056-.834,1.224c-.078.648-.234,1.533-.256,2.393-.006.252.375.435.553.622l1.1-.6c.963.222.443,1.017.565,1.534.006.031.1.018.2.007.045-.006.089-.011.126-.013l1.367-1.169c.155.086.29.122.285.165-.105.847-.227,1.694-.35,2.563-1.019-.226-1.547.554-1.971,1.117-.149.66-.262,1.158-.319,1.412l.4,1.049-.682.972c.31,1.55,1.757,1.237,2.578,1.714.377-.187.68-.368.994-.485a1.053,1.053,0,0,1,.312-.049.907.907,0,0,0,.349-.067,8.761,8.761,0,0,0,.943-.621,1.893,1.893,0,0,0,.49,1.968q.562-.6.964-.041a17.961,17.961,0,0,0,1.277-1.294.636.636,0,0,0,.074-.84,5.394,5.394,0,0,1-.835.158c.21-.831.485-.394.835-.158a3.169,3.169,0,0,1,2.414.854c.043.044,0,.272-.066.343-.348.375-.718.727-1.132,1.138l-.887-.036-.866.862a1.466,1.466,0,0,0,1.235.212,1.946,1.946,0,0,1,.94.038c.417.317.494,1.069,1.2.943.71-.513,1.181-1.39,2.018-1.7-.006.017-.5,1.475-.544,1.61l3.04-1.174.39.491c1,.007,1,.007.946.409l-1.232,1.226-1.8.073c-.387.492-1.043.732-1.187,1.454.575.36,1.185.085,1.8-.19a2.11,2.11,0,0,1,1.633-.282l.8,1.005c-.035.357-.073.716-.181,1.778a1.9,1.9,0,0,1,2.03-1.293,1.758,1.758,0,0,0,1.248-.329c-.229-.324-.448-.657-.717-1.069l2.119-.863c-.025.209.02.48-.085.6-.41.467-.867.887-1.317,1.334.2.225.383.461.572.7.585-.009,1.161.233,1.773-.276l-.7-.884c.421-.547.863-1.12,1.376-1.788l-.467-.982c.17-.23.4-.545.615-.832l.961,1.356.347.027a10.135,10.135,0,0,1-.859.928l.8,1.028c.786-1.089,1.931-.835,2.855-1.414.026-.016.121.147.185.227a1.624,1.624,0,0,0,.213-.2l1.423,1.024h.016l.534.674a5.392,5.392,0,0,1,2.48.616c-.054.925-.023,1.1.2,1.13.589-.424,1.29-.742,1.366-1.547l-.447-.945,3.21-3.192c.355.259.7.555,1.068.827l1.5.114a6.881,6.881,0,0,1,1.587,1.078c.46.594,1.472.013,1.859.763.237.462,1.11.378,1.313,1l1.872.142c.2.24.386.458.582.691l2.5.19.459.619,2.476.189.751.766,3.068.233.953,1.287.906-.085-.275-.937c.982-.6,1.058.342,1.549.535.743.057,1.706-.131,2.177.229a7.315,7.315,0,0,0,2.1.874c.167.063.24.3.375.482l3.2.244.784-.524.55.663,1.215.093.589.691,1.958.149c.142.795.754.728,1.342.666.124-.013.247-.026.366-.032l.925-.534,1.83.14c.257-.413.472-.76.675-1.085,1.593.042,1.591.048,2.195.526-.413.117-.81.228-1.522.428.4.383.726.686,1.1,1.047l3.674.28.4.544,1.334.249.529.533,4.516.344c1.008-.732,1.922-1.411,2.856-2.061.154-.106.4-.082.776-.148.161.355.353.787.525,1.167l-1.156.4.735.994,7,.534.53.657c.632.295,1-.356,1.592-.529l3.634.277.816-.482.93,1.256.814-.543,6.345.484.806-.55,3.166.241.559.646a2.965,2.965,0,0,0,2.24-.5l3.017.23c.252-.182.435-.316.757-.55l5.517.421a6.531,6.531,0,0,1,1.22-.487c.327-.039.5.173.68.385a.75.75,0,0,0,.827.361,2.991,2.991,0,0,1,.116.421l-1.158.3c-.292.471-.364.836.239,1.157a7.925,7.925,0,0,1,1.314-.579,1.462,1.462,0,0,1,.488-.012,1.3,1.3,0,0,0,1.2-.422l-1.278-1.038c1.153-.843,1.26.063,1.653.335l3.156.241.793-.493.55.564,1.464-1.063.648.016.826-.563,4.434.338.855-.581,3.157.24a1.7,1.7,0,0,1,1.9-.414l.959.736,1.258-.636a3.532,3.532,0,0,1,1.946,2.056,1.411,1.411,0,0,0,.353.464,2.663,2.663,0,0,0,.592.26l1.143-.609,2.416.185.741-.539,2.259.173,2.072-.8c-.09-.119-.132-.26-.208-.267-1.267-.109-2.538-.2-3.828-.3-.616.655-1.583.458-2.311,1.018-.244.186-.809-.03-1.182-.058l-.906-1.224-1.018-.449c.458-.334.826-.6,1.2-.868l.471.552,6.765-2.536.233.018.472.285.03.194h.013l-2.425,1.437c.234.282.431.748.688.911a.348.348,0,0,0,.179.058,10,10,0,0,0,1.98-.523c1.115-.234,2.229-.4,3.344-.6l-.591-.846.3-.189,1.587.19c-.019-.327-.039-.668-.067-1.151l.931-.589,5.236,6.1,1.591-2.238,2.814.412.839-1.157,1.913,4.623.372-.225c-.042-.2-.085-.392-.128-.588h.013l1.566-1.29v.017l1.811-.287q-.019.295-.039.588l-1.016.158q-.032.387-.065.775c1.892-.968,2.765.013,3.638.993a5.231,5.231,0,0,0,1.232,1.125l-2.959-5.465,7.312,6.068-1.673-4.121a28.689,28.689,0,0,1-2.981-1.4c-.424-.236-.361-1.267-.518-1.939.824.448,1.649.9,2.722,1.477l-1.9-3.247,0,.01-1.926-.078c.041-.161.083-.322.124-.484l1.8-.614,6.179,4.834-.753-1.616-5.6-4.353.846-.69-.424-1.4.008-.025.018-.386c.583-.887,1.2-1.761,2.414-1.818,0-.049-.009-.1-.013-.148a.782.782,0,0,0,.354-.107l1.407-1.022,5.293.4,1.321-1.182a4.01,4.01,0,0,0,2.412-.408,4.166,4.166,0,0,1,2.532-.405l.916-.837a23.314,23.314,0,0,1,3.2.131,12.086,12.086,0,0,1,2.134.118c.395.1,1.174-1.129,1.845-1.408,1.319-.549,2.893-1.408,3.979-1.121,1.483.392,2.665-.64,4.342-.9l2.943,1.789,2.142-2.854a3.635,3.635,0,0,0,2.548-.133,4.453,4.453,0,0,1,1.817-.289,6.863,6.863,0,0,0,2.962-.393,9.551,9.551,0,0,1,2.1-.434l.682,1.339c-1.192.633-2.383.5-3.285,1.552.842,1.809,3.253,1.593,4.054,3.53l-2.526,1.212-3.091-1.88-2.077,1.89c-.334-1.116.03-2.865-1.91-2.235l-.881,1.432a6.842,6.842,0,0,1,1.441,3.121c1.015-1.078,1.753-.625,2.5-.172.684.414,1.373.828,2.289.065l3.292,1.582,4.412-3.49,1.008.613c.1.553.206,1.131.275,1.515l3.446-.067-1.24-2.28c.277-.448.513-.833.749-1.216-.107-.82-.215-1.635-.322-2.452-.349-1-2.312-.361-1.818-2.223.945-.111,1.9-1.126,2.916-.42l1.024,2.287c1.47-.023,2.8-.119,3.644-1.867-.248-1.435-1.832-2.178-1.164-4.093,1.16-.431,1.612.691,3,1.071l2.758-1.521c.106.81.159,1.218.216,1.647a3.536,3.536,0,0,0,2.465-.714c-.02-.566-.039-1.112-.057-1.637,1.087-.541,1.45.393,2.122.595.486-1.045,1.4-.848,2.112-1.184.759-.356,1.839-1.034,2.28-.764a2.759,2.759,0,0,0,2.6-.155,3.462,3.462,0,0,1,1.837-.4,12.009,12.009,0,0,0,2.147.029,5.3,5.3,0,0,1,2.083.828c.46.909.284,1.052-.314,1.216-1.173.32-2.476,1.256-3.466,1.088a3.926,3.926,0,0,0-2.726.2c-1.464.771-3.157.5-4.448,2.015l1.409.856c1.5-.395,3.025-1.561,4.454-.675a4.335,4.335,0,0,1,2.251-.279,3.783,3.783,0,0,0,2.781-.6c2.479.5,4.916-.969,7.371-1.7a3.2,3.2,0,0,1,.888-.028c.06.455.113.863.178,1.358l1.9,1.156c1.793-.174,3.286-1.572,4.793-2.951-.168-.918-1.141-.842-1.56-1.411a9.431,9.431,0,0,1-.83-1.81l-1.717.381a11.148,11.148,0,0,1,2.856-4.551l2.453,1.115,1.93-1.778,1.177.716a29.32,29.32,0,0,0,2.766-1.125c1.019-.524,1.991-1.213,2.917-1.788a2.22,2.22,0,0,1,1.335,1.438c2.1-1.381,2.054-2.864,3.269-3.222,1.72,1.408,4.383.13,6.008,1.733l2.106-2.79a14.847,14.847,0,0,0,4.04-.325,10.877,10.877,0,0,1,5.117-.087c.337-.548.575-.932.809-1.315l4.114-1.462c.3.184.612.372.123.074,1.707-.094,2.675-.148,3.312-.185.689-1.67,2.346-2.769.688-3.771-1.141-.18-2.263.576-3.4.921-1.175.358-2.339.818-3.509,1.234l-3.507,1.246-3.473,1.234c-.762-1.312-1.816-1.4-3.125-.69l-2.75-1.672c-1.185.358-2.32.7-3.457,1.019-.014,0-.051-.382-.1-.74,1.116-1.814,2.278-3.741,3.5-5.632.135-.208.6-.195.961-.3,0,1.109.146,2.086,1.5,2.034.815-.387,1.293-1.45,2.336-1.9.928-.4,1.658-1.8,2.469-2.752l1.927,1.171,6.083-2.162.6-.973c2.132-.757,4.272-1.514,6.409-2.294.075-.028.118-.29.175-.442-.053-.408-.107-.816-.234-1.784a4.026,4.026,0,0,0,4.293-.251c.2-1.7-2.362-.943-1.975-2.73a12.183,12.183,0,0,1,6.6-1.307c.133.506.257.984.5,1.913l2.52-3.718,2.981-.25c-.484-1.808-1.42-1.562-2.294-1.322a4.1,4.1,0,0,1-.735.158c-.9-.843-2.511-.776-2.815-2.407.846-.344,1.67-.967,2.523-.656l.167,1.273c1.116-.459,2.114-.129,3.159-.1.129,0,.308-.248.6-.5.1-.459.225-1.043.252-1.169-.429-1.13-1.083-.922-1.706-.717a1.769,1.769,0,0,1-.847.144c-.127-.83-.251-1.634-.374-2.438l4.137-1.47,1.008.613c.814-.612,1.891-.356,2.748-1.4.192-1.124.4-2.314.583-3.409l1.467-.583c1.316-.9,1.3-2.375,2.519-2.718.786,2.123.786,2.123,2.518,1.677l.626-3.684,10.477-3.723c.149-.814.257-1.392.328-1.78-.364-.743-1.115-.556-1.841-.371-.9.229-1.763.455-1.813-1.089l5.726-2.073,1.386.412c1.383-.986,1.1-1.987.929-3.01,2.719-1.338,5.525-2.011,8.233-3.781,2.46-1.608,5.6-1.581,8.073-3.175,2.743-1.77,5.565-2.506,8.327-3.784.287-1.837,3.544-.974,2.925-3.59l-6.311,2.242c-1.265-.88-2.485-.273-3.675.525.009.547.018,1.076.027,1.663-1.611.068-2.393-1.135-3.471-1.486l-4.18,1.391-2.152,3.5-2.351.836c-.864-2.18-.446-4.666.017-7.212,2.956-1.717,6.271-.652,9.434-2.486,1.4.72,3.451-.634,4.661.816.138.165.7-.1,1.083-.176.7-1.143,1.413-2.3,1.993-3.239.618-.689,1.811-.11,1.663-1.619-1.068-.648-2.2-1.251-3.235-1.991-.9-.639-2.265-.787-2.655-3.174,1.635.98,2.691,1.637,3.64,2.2l5.92-1.973c.51-.83.982-1.6,1.5-2.444,1.582.064,3.175.14,4.774.179.136,0,.319-.232.675-.51l1.232-2,4.752.16,6-2.132c1.2.737,2.431.179,3.651-.377a5.792,5.792,0,0,1,2.453-.727c.865.307,1.4,1.348,2.561.737.91-.479,1.407.147,2.052.427.755.329,1.265,1.372,2.423.62-.028-.216.017-.511-.093-.608a5.953,5.953,0,0,0-1.3-.946c-1.292-.621-2.272-1.816-3.684-1.991l-1.349.479-2.81-1.707c-.1-.563-.2-1.155-.3-1.726l-1.872-1.138-4.169,1.481c.412.76.815,1.5,1.237,2.277l-6.549,2.327c-.247.364-.495.732-1.032,1.527-1.146-1.118-2.64-.084-4.124.27a5.677,5.677,0,0,1-1.547.091,4.478,4.478,0,0,0-2.327.367,38.587,38.587,0,0,1-4.493,1.643c-.113-2.173,1.418-2.135,2.335-2.78-.05-1.891-.05-1.891,1.235-2.978l1.563.485c.471-.686.821-1.241,1.218-1.757a27.487,27.487,0,0,1,3.835-2.774c.84.773,1.815-.035,2.745-.2.751-.136,1.5-.2,2.195-.256.3-.025.589-.048.864-.077l1.395-1.375,1.09.55c1.3-1.03,2.6-2.081,4.242-2.245l1.444.877,3.666-.069a2.765,2.765,0,0,0,.366-.552c.138-.389.219-.79.345-1.266-1.579-.561-1.918-2.419-3.175-3.986l-5.285,2.686c.433-1.336.625-1.926.919-2.835-.091-.876-.215-2.075-.361-3.48.609.158,1.286.1,1.561.452.528.668.107,2.11,2.106,2.393l4.027-1.914c.826.5,1.255,1.025,1.775,1.029,1.435.008,2.914-.233,4.365-.3.346-.017.652.264.975.408.431.773.009,2.193,1.418,2.371l1.431-1.15-.577-3.089-2.751-1.672.673-1.98c-.21-1.348-.06-3.075-.8-4.584l-4.88.232c-.087-.437-.2-.986-.3-1.529l-3.011,1.07c-.456-.925-.543-2.143-1.732-2.474-.91-.256-.822-1.084.168-2.569l2.884-.289,2.231,1.357.355,1.894c.9.079,1.33,1.3,2.638.649.222-.481.482-1.045.719-1.558l-2.523-2.491a4.894,4.894,0,0,1,4.06,1.727c.148,1.127.282,2.147.425,3.239l2.366-1.823,2.852,1.733,2.48-.881.656-1.439c-.328-1.106-1.037-1.018-1.811-.923a1.864,1.864,0,0,1-2-.591c-.047-.334-.157-1.123-.172-1.225l1.662-5.165,1.527-.79c-.7-.549-1.088-.9-1.519-1.186-.6-.4-1.221-.75-1.8-1.1-1.712,1.294-2.506-.344-3.72-.422-1,.356-2.1,1.1-2.916.944a3.729,3.729,0,0,0-2.721.179c-.342-1.515.009-3.384-1.4-4.3-.124-.08.134-.754.258-1.376a11.255,11.255,0,0,0,1.456-.816,21.864,21.864,0,0,0,1.717-1.659l-1.147-3.052,1.771-.629c-.02-.54-.042-1.091-.068-1.766l2.5.039.889-1.443c-.378-1.075-.806-2.291-1.33-3.78.14-.733.357-1.874.5-2.638.975-1.169,2.275-.645,3.083-1.885l-1.237-1.729c.437-.71.833-1.27,1.134-1.872a6.385,6.385,0,0,0,.328-1.267l-1.209-.736c-2.636,2.073-5.09,3.123-6.2,2.45-.141-.449-.354-1.127-.558-1.775l-1.489.374c-.161-.614-.287-1.094-.406-1.549l-3,1.066-1.525-.468-2.439,2.911c-1.116-.312-1.573-1.433-2.863-.922l-.8,1.49,1.282,1.828c-1.9,1.218-3.564.867-5.248.689a1.93,1.93,0,0,1,1.467-1.927c.882-.234,1.4-.819,1.58-2.092.523-.868-1.971-.283-.819-1.829l1.912.262c.641-.609,1.065-1.238,1.554-1.421a2.634,2.634,0,0,0,1.833-1.634c-.045-.574-.09-1.155-.134-1.724.985-.533,1.423.262,2.071.514s1.063,1.044,1.829.808l1.321-.47,1.97,1.2a6.915,6.915,0,0,1,4.789-.948,7.588,7.588,0,0,0,4.447-.691c-.07-1.338-1.284-1.244-1.888-1.873a4.579,4.579,0,0,0-1.591.485,2.839,2.839,0,0,1-2.337.339,6.251,6.251,0,0,0-2.644-3.422c.31-.967-.662-1.794.135-2.928a5.725,5.725,0,0,1,.99-.766c1.7-.773,3.274-.262,4.914-.4.288-.253.655-.757.851-.721,1.94.363,4,.035,5.991.1.545-.634.658-1.683,1.589-1.932,1.26,0,1.922,1.438,3.6.672.855-.391,2.013.421,2.249,1.789.274,1.589,1.274,2.1,2.875,1.7l-1.248-2.234c.711-1.453,1.983-2.524,2.094-4.162a19.563,19.563,0,0,1-1.937-1.685c-.131-.142.154-.741.247-1.131l-.408-.247.608-.593c-.071.3-.134.571-.2.842.624.379,1.226.8,1.883,1.12a3.5,3.5,0,0,0,1.108.114c.544-.883,1.1-1.79,1.608-2.613-.149-.933-.275-1.722-.4-2.5l-4.15-2.521c.543-.119,1.085-.214,1.62-.328,1-1.44.634-2.876,1-4.407l2.556-1.385c-1.09-1.007-2.284-.983-3.58.255-1.115,1.066-2.642,1.279-3.109.593-.916-1.346-2.444-.392-3.513-.915-.625-.6-.02-1.534-.06-2.3-1.737-.765-3.272-1.895-5.165-2.388-.191-.05-.167-.631-.243-.965-1.3-.8-2.983-1.013-3.911-2.372a3.986,3.986,0,0,1-.331-1.06c.079-1.294,1.459-1.6,1.842-2.547a8.924,8.924,0,0,0,4.537-1.819c.89.021,1.325.635,1.762,1.253a3.263,3.263,0,0,0,1.03,1.069,3.141,3.141,0,0,1,.961-.091,2.106,2.106,0,0,0,1.9-.723,5.854,5.854,0,0,0-3.321-2.424c-1.422-.588-2.832-1.17-3.442-2.784l-2.476.205c-.247-.287-.486-.566-.81-.945-.319-.333-.795-.243-1.288-.151a3.233,3.233,0,0,1-.809.083,3.24,3.24,0,0,0-.653.045c-.552.075-1.11.15-1.453-.463l1.267-1.412a1.945,1.945,0,0,0-.468-2.146c-.294-.358-.234-1.068-.373-1.851l-1.8-.566c.03-1.019.6-.963,1.116-.9.39.046.744.1.8-.316.694-1.16.648-1.87.054-2.433s-.587-1.3.04-2.246c1.551.545,3.2.932,4,2.753l-2.313,1.027c-.1.524-.217,1.105-.313,1.6.482.618,1.12.53,1.819.436a4.109,4.109,0,0,1,1.233-.038c.039,1.023.081,2.167.13,3.483l1.611.231,1.84,2.146,1.38-1.151,1.018.933,1.661-1.28c1.393-.115,2.779,1.792,3.637,4.644l1.521-.127a6.819,6.819,0,0,0,.567-1.214c.147-.637.185-1.276.287-2.061l2.208-.961c.142-1.389-1.315-1.479-1.363-2.877l1.336-2.452,3.659-2.667c.091-.7.147-1.122.209-1.595-.714-.332-1.435-.667-2.151-1l1.238-1.474-1.086-1.267,3.016-2.123a15.9,15.9,0,0,0-.352-2.121,7.691,7.691,0,0,0-.693-1.3c.31-.581.541-1.261.7-1.277,1.816-.2,2.767-1.933,4.071-3.081a3.047,3.047,0,0,0,2.2,1.276c.795.207,1.236,1.291,1.851,2.008,1.084.435,2.854-.63,3.447,1.177.727-.06,1.5-.1,2.268-.195.559-.067,1.126-.2,2.085-.382l-.77-1.3c.534-1.333,1.056-2.633,2.038-5.081l.965-.971a1.932,1.932,0,0,1,2.1.324,1.5,1.5,0,0,0,2.158-.038c.1-.387.264-.975.4-1.495l-1.521-1.774-3.585.3c-.26-.826-.523-1.664-.8-2.527l-2.526,2.58c-1.448.354-2.976.777-4.609-.207l3.811-1.078c.141-.534.3-1.122.429-1.623-.426-.687-1.052-.6-1.66-.521a2.151,2.151,0,0,1-1.018-.016l-1.568,1.466-2.8.232-2.262-1.436c.151-1.672.63-2.414,1.575-2.255,1.232.208,2.121-.793,3.127-1.391.611.712,1.208,1.408,1.847,2.153l1.281-1.176c1.336.74,2.66,1.474,4,2.213,1.634-.98,2.661-2.511,3.74-3.572.3-.786.525-1.37.751-1.962l3.459-.286,2.555-2.39c-.19-.665-.336-1.176-.448-1.57-1.318-.431-1.908.951-2.792,1.432-.372-.011-.819.1-1.1-.056-1.191-.655-2.288-1.471-3.515-2.056a2.428,2.428,0,0,0-1.3.025c-.268.043-.567.089-.9.117-.741-1.135-1.646-2.525-2.147-3.291-1.891-.584-2.5.816-3.391,1.167-.466.183-1.007-.142-1.631-.259l2.633-2.813c.358-.9.59-1.476,1.114-2.791,1.076,1.779,1.927,3.188,2.7,4.468,2.117-.814,3.648-2.254,5.367-2.081.21-.456.409-.831.552-1.219a2.322,2.322,0,0,0,.058-.62l-3.074-1.573-1.814.151c-1.284-.817-1.689-2.249-2.11-3.663l-1.294.018c-.077-.5-.163-1.056-.268-1.746-.215-.137-.445-.278-.684-.422a17.656,17.656,0,0,1-1.7-1.124c-.678-.529-.967-1.618-2.2-1.307a19.032,19.032,0,0,1-1.408-3.945c.006-.6.08-1.219.137-2l-1.653-.233c-.367-1.455-.367-1.455.94-3.044-.348-.927-1.677-1.527-.129-3.33a26.941,26.941,0,0,1,2.725,3.253,3.443,3.443,0,0,0,1.735,1.274,4.6,4.6,0,0,1,1.255.717c1.026.915,1.606,2.41,3.328,1.932-.074.9-.109,1.314-.143,1.725l4.017,4.685c-.877.486-1.717.95-2.575,1.427l2.557,2.982,2.354-.195,1.406-1.346,3.533-.292.828.965a6.144,6.144,0,0,0,2.74-.006,11.936,11.936,0,0,1,1.725-.167,7.8,7.8,0,0,0,1.74-.267c.159-.037.318-.307.486-.479-.347-.8-1.026-.68-1.7-.559a3.73,3.73,0,0,1-.775.086c-.737-.028-1.578.3-2.032-.484-.4-.684-1.062-.588-1.743-.491a3.874,3.874,0,0,1-.929.06,4.162,4.162,0,0,1-1.6-1.631c-.666-.977-1.342-1.96-2.855-1.828l-3.679-4.29L627.751,260c.1-.777.209-1.6.289-2.211-.118-.383-.116-.659-.234-.712-1.386-.627-2.793-1.22-4.182-1.819.122-.936.233-1.783.354-2.7l-3.719-4.123c-1.184.088-2.522.21-4.567.37a4.657,4.657,0,0,1,3.59-1.548,7.246,7.246,0,0,0,.791-.057c1.376-.2,2.741-.248,4.083-.358,1.135-1.223-.267-1.222-.333-2.063.137-1.042.3-2.316.47-3.58-.281-.22-.577-.681-.8-.6-2,.733-2.835-1.263-4.511-1.23-1.465-2.866-5-3.328-6.365-6.01,1.309-2.358,2.614-4.645,4.807-6.144.477.557.955,1.115,1.442,1.682-.167,1.267-.334,2.545-.507,3.863.845.937,1.7,1.887,2.627,2.909a5.587,5.587,0,0,0,1.373-.068,4.071,4.071,0,0,1,2.574.237l-1.135,1.4c.479,1.17,1.111,2.191,2.776,1.965,1.258,1.465,2.564,2.988,3.872,4.514,2.275-1.97-1.073-2.58-.089-4.263-1.5-2.228-3.406-4.019-4.556-6.657-1.038-2.378-3.729-3.651-4.747-6.036-1.121-2.624-3.06-4.354-4.479-6.616.829-.8,1.739-1.534,1.221-2.944l-1.455-.222-3.486-4.128c1.074-1.294,1.658-.745,2.271-.179.494.458,1.008.926,1.814.445.2-.359.494-.9.911-1.649l-6.426-7.494,1.93-3.393c-1.175-1.1-1.175-1.1-3.263.387-.812-.8.189-2.039-.326-3.353l-.859-1.1c.572-1.01,1.195-2.106,1.782-3.142-.028-1.246-1.116-1.473-1.4-2.33l-1.267.105-2.538-2.96,1.948-1.92a1.346,1.346,0,0,1,.624.473c.394.432.811.879,1.931.094.062-.119.344-.668.567-1.1-.083-.337-.066-.625-.178-.675-.91-.407-1.979-.537-2.623-1.389l-.993,1.014c-.933-.088-1.218-.958-1.708-1.6a3.231,3.231,0,0,1,2.609-.785,5.064,5.064,0,0,0,1.4-.1,3.075,3.075,0,0,1,.52.438c.583.566,1.214,1.162,2.836-.177l-2.371-1.443c.142-1.744.223-2.751.341-4.2l-1.7,1.421c-1.838-.866-3.671-1.8-4.74-3.837.443-.86,1.1-.834,1.761-.809a1.662,1.662,0,0,0,1.744-.7,3.339,3.339,0,0,0-3.485-1.986l1.392-1.421c.052-.153.191-.394.146-.448-1.3-1.546-2.613-3.073-3.921-4.6.06-.45.115-.873.141-1.075l-3.731-4.351-2.422.2c-.054-1.145.263-2.639-.261-3.361-.589-.812-.285-1.913-.72-2.579-1.118-.6-1.893.168-2.636,1.111-.237-.233-.644-.417-.62-.648.224-2.115.524-4.235.786-6.238.28-.286.57-.6.579-.589.756.737,1.491,1.5,2.26,2.294l3.457-.287c.638,1.147,1.594,1.506,3.12.7.741.865,1.435,1.675,2.13,2.484l2.151,2.509c.717.836,1.4,1.709,2.161,2.5.736.764,1.186,1.87,2.277,2.188,2.081-.168,1.405-1.787,1.935-3.493-.517-.294-1.3-.739-2.694-1.525l-.154.013-2.524-2.942c.057-.422.111-.847.191-1.452a9.129,9.129,0,0,1-4.3-2.187,11.884,11.884,0,0,0-3.221-1.944c.023-1,.045-2,.073-3.244a4.64,4.64,0,0,1-3.261-.471,4.9,4.9,0,0,0-3.009-.535c-.794-.807.235-2.049-.626-4.091a3.131,3.131,0,0,1-2.1.671,28.9,28.9,0,0,0-1.287-2.726,20.342,20.342,0,0,0-1.6-2.1l-1.481.123c-.138-.7-.28-1.426-.454-2.309l-2.832-.065a9.471,9.471,0,0,1,.611-5.051l1.207,1.034a13.716,13.716,0,0,1,1.916-1.2,2.239,2.239,0,0,1,.9-.125,1.765,1.765,0,0,0,1.375-.432c-.359-1.8-.7-3.6-2.1-4.49l-2.39.2-1.059,1.081a2.645,2.645,0,0,1-.737-.39c-1.6-1.638-2.691-3.892-5.134-4.493a2.847,2.847,0,0,0-1.963-1.661,3.4,3.4,0,0,1-1.729-1.167c-1.808.163-2.329-1.459-3.338-2.413l-1.771.147c.084,1.825,1.708,2.29,2.438,3.551a3.185,3.185,0,0,0,2.188,1.293c.955.266,1.438,1.6,2.222,2.357.4.386.453.581-.546,1.164a5.964,5.964,0,0,1-2.326-.155,10.272,10.272,0,0,0-1.846-.861,2.582,2.582,0,0,1-1.3-1.1,2.277,2.277,0,0,0-2.111-1.206c-.556.048-1.021-.976-1.429-1.592-.385-.582-1.29-.79-1.005-1.88a2.386,2.386,0,0,0-.739.056c-.534.094-1.084.19-1.464-.425q.548-.658,1.143-1.37c-.384-.686-.739-1.455-1.621-1.625l-1.285,1.312c-.521-.952-1.041-1.9-1.329-2.432a5.215,5.215,0,0,0-1.574.019c-.7.086-1.279.159-1.7-.348.712-1.906,2.555-1.883,3.726-3,.45-1.836-.618-2.466-1.853-3.093l-2.4,1.522c-1.336.181-1.471-1.077-2.2-1.561a1.456,1.456,0,0,1,1.8-.949,1.658,1.658,0,0,0,1.232-.192l1.912-1.953c.056-.423.111-.849.176-1.344l2.58-1.428-2.888-1.48-1.246,1.176-1.267.105-1.421-4.79-3.859-.013c-.268-1.027-1.132-.96-1.99-.89-.937.077-1.868.157-2.011-1.178a9.93,9.93,0,0,1-3.312,2.061l-.208,1.582c1.229,1.338,2.088-.3,3.118-1.113.185.9.332,1.622.5,2.466l3.887-.323c.34.525.81,1.254,1.338,2.074a5.1,5.1,0,0,1-2.995.713,5.121,5.121,0,0,0-2.813.616c.064,1.268,1.167,1.646,1.758,2.676l-1.476.858a7.1,7.1,0,0,1-1.494-1.235,5.325,5.325,0,0,0-2.257-1.558,3.412,3.412,0,0,1-1.354-1,2.991,2.991,0,0,0-2.079-1.166c.028-1.1.054-2.1.085-3.312l-3.7.306c-1.254-.912-1.57-2.278-3.094-2.557-1.115-.2-1.88-1.585-2.635-2.6-.385-.514-.225-1.883-.63-1.96a10.614,10.614,0,0,1-1.895-.781,20.236,20.236,0,0,1-2.81-1.209c-.077-.383-.152-.753-.22-1.091a3.2,3.2,0,0,1-1.883-1.39,3.07,3.07,0,0,0-1.78-1.343c-.109-.5-.235-1.093-.334-1.551l-2.436-.941c.632-.363,1.36-.773,2.195-1.24l-2.386.123,1.663-1.135-.011.02,1.388-1.927.01-.025,1.293-1.012-.258-.936,7.678-1.39,1.721-1.063-8.489,1.561L521.669,69.7l.218-.463,1.69.729,0,.009,3.784-1.98-3.3.133c.583-.507,1.219-1.409,1.737-1.436a33.82,33.82,0,0,1,3.473.039l-.594.4,2.967-.256.01-.021c-.8-.032-1.589-.082-2.384-.123l4.178-2.815-10.277,2.143,6.17-3.428a7.151,7.151,0,0,0-1.8.448c-1.4.474-2.8.948-3.759-.657l-.464.687.759.554c-.119.172-.239.344-.36.516l-1.349-.992-.01.015q-.236-.871-.47-1.745l-.011-.006.5-.447-.166-.346L517.488,63.8c.02-.444.039-.887.06-1.33l-2.67-.812c.037-.669.087-1.568.143-2.562L505.3,62.55l-.108-.273,1.726-1.986L505,59.651l1.379-.614c-.818-.626-1.655-1.228-2.446-1.888-.472-.393-.8-1.02-1.334-1.262a.377.377,0,0,0-.191-.024,6.944,6.944,0,0,0-1.195.491q.552,1.112,1.1,2.224l-.01-.006-2.209,2.178-1.376-3.056c-.426-.363-.544-.584-.694-.574-.965.068-1.932.144-2.883.222l-.21-.081q-2-2.44-4.061-4.951l-.77.275c-.135-.381-.27-.76-.436-1.233l1.165.038,1.589-.667c.337.13.962.18,1.044.439.246.777,1.2,1.009,1.286,1.82,1.163.45,2.306.895,3.458,1.325.07.025.2-.077.356-.142-.337-.42-.662-.829-1.228-1.538l-2.038-.785-.271-.764-2.179-.841-.565-.99a3.124,3.124,0,0,0-.677-.024,2.035,2.035,0,0,0-.61.249,4.913,4.913,0,0,1-3.031.947l-.644-1.061-1.308.23c-.52-.11-1.25-.229-1.34-1.137l-2.846-1.1c-.115-.287-.225-.562-.34-.847l-4-1.544c-.113-.283-.222-.559-.326-.82l-.563-.255c-.169-.478-.338-.953-.535-1.509l-.844.253c-.1-.217-.213-.46-.346-.747l-2.846-1.1c-.517.07-1.213.8-1.63-.4l1.781-.355a.948.948,0,0,0-.741-.855,1.221,1.221,0,0,1-.407-.212,5.424,5.424,0,0,1-.732-1.035c-.727.023-.91.365-.976.886.226.211.5.462.786.731a4.254,4.254,0,0,1-.38.31c-.292-.265-.621-.151-.945-.034-.294.106-.584.216-.836.047-.226-.15-.348-.436-.713-.918l-4.976-1.92c-.118-.331-.184-.521-.276-.78l-2.721-1.05a2.231,2.231,0,0,0-1.57-1.354l-.907.319-2.855-1.1c-.1-.242-.205-.517-.317-.8l-5.723-2.209-.33-.8-1.631.684c-.111-.221-.225-.451-.373-.747l-3.277-1.265c-.386-.391-.266-1.1-1-1.107l-.889.34-6.312-2.435-1.29.542.716.818-1.227.776c-.277-.213-.5-.293-.561-.447-.361-.938-.685-1.894-1.053-2.933L426.59,21.91l-.807.235-1.3-.339-.708.3-3.313-1.279-1.639.435c.472.464.736.723,1.009.993-.832.158-.836.164-2.219-.459.045-.361.093-.745.151-1.2l-1.651-.637c-.149-.288-.28-.542-.431-.836-.1-.054-.193-.116-.29-.178-.459-.3-.935-.606-1.587.012l-1.766-.682-.963.345-1.1-.423-.911.337c-.112-.274-.225-.546-.316-.77l-2.883-1.113c-.237.1-.457.271-.641.255a8.33,8.33,0,0,0-2.37-.122c-.641.112-1.335-.445-2.006-.7a1.443,1.443,0,0,0-.562.131c-.405.151-.817.3-1.112-.315l.86-.684-.715-.445-1.671.7L394.886,14.4l-1.152.342-2.232-.863-.8.338-2.25-.869-.957.348-1.687-.651a1.4,1.4,0,0,1-1,.2,1.368,1.368,0,0,0-.783.1,1.136,1.136,0,0,1-1.122-.022,1.2,1.2,0,0,0-.97-.1,4.171,4.171,0,0,1-1.307.2c-.233.013-.486.029-.763.06l-1.353-.523c-.5.078-.986.189-1.461.263l-.6-4.041,1.012-.619c.474-.716.09-1.277-.128-1.881-.213-.067-.356.068-.928.878a5.442,5.442,0,0,1-2.522-.5l-.9.353-.013-.008-1.9.285a1.213,1.213,0,0,0-.049-.256c-.107.042-.3.142-.31.117-.4-.875-1.543-1.131-1.484-2.383l-1.371.543a7.632,7.632,0,0,1,.11,1.144l-.313-.121-1.724.757c.011-.332.023-.7.032-.962l1.054-.643c.01-.779.017-1.449.025-2.089l1.186-.462c-.18-.686-.832-.718-1.324-.967-.32.125-.637.248-.955.359.084.566.192,1.112.229,1.679.01.143-.209.356-.328.543l-1.226-1.609c.5-.24.913-.433,1.325-.614-.117-.444-.476-.618-.842-.8-.576-.279-1.168-.569-.863-1.939L363.2,1.588l-1.35.526c-.594-.037-.9-.476-1.2-.914-.337-.486-.672-.972-1.4-.9-.36.673.039,1.149.038,1.727.467.253.932.507,1.483.806L361,4.382c-.221.366-.221.366-1.079-.043l-.661.257-1.8-2.254c-.052.133-.607,1.577-.613,1.594-.506-.607-.321-1.549-.581-2.278-.517-.4-1.085.209-1.652.307a1.7,1.7,0,0,1-.825-.356,1.413,1.413,0,0,0-1.193-.33l.161,1.091.779.336c.077.521.156.973.2,1.436a.463.463,0,0,1-.174.319,3.439,3.439,0,0,1-2.625-.27.752.752,0,0,0,.5-.745,13.442,13.442,0,0,0-.221-1.628c-.475.2-.74.059-.793-.433a2.6,2.6,0,0,0-1.732,1.473,6,6,0,0,0-.388-.918.673.673,0,0,0-.252-.2.8.8,0,0,1-.232-.171A7.767,7.767,0,0,1,347.3.744c-1.017.067-2.04-.8-3.34.4-.019.307-.041.652-.07,1.108l-1.041.728-.673,1.333c-.016.654-.088,1.536.931,1.764-.478.79-.94,1.562-1.417,2.326-.024.039-.163.013-.353.023-.121-.493-.251-1.026-.381-1.559-.029-.016-.063-.039-.1-.062-.075-.051-.15-.1-.176-.078-.449.39-.538,1.28-1.506,1.073-.094-.17-.29-.524-.536-.964-.277.087-.723.084-.886.3-.557.741-1.016,1.558-1.383,2.142-.044.575-.072.92-.108,1.386l-.94-.391A8.048,8.048,0,0,0,334,15.1l-1.031-.122c-.363.68.032,1.158.042,2.064l1.613.384a1.812,1.812,0,0,1-.306.468l-1.945.228-1.62-.626-1.533.956a1.7,1.7,0,0,0-1.668-.383c-.392-.552-.7-1.2-1.546-1.172a1.7,1.7,0,0,0-.126,1.356,3.057,3.057,0,0,1-1.473-.32l-2.447,1.026c-.189-.3-.377-.6-.633-1.008-.723.247-1.5.766-2.086.65a2.013,2.013,0,0,0-.906.1,1.326,1.326,0,0,1-1.209-.056L313.8,20.069l-.58-.223-2.486,1.042-1.477-.382c-.179.262-.348.513-.508.749.142.185.246.465.368.459.893-.042,1.79-.139,2.832-.233a1.166,1.166,0,0,0,.342.118,1,1,0,0,1,.815.716l-1.638.385-.556,1.121c.383.147.758.316,1.153.433a2.036,2.036,0,0,0,.588-.006l.806-.857c.677.4,1.541.315,2.09,1.423-1.158-.6-1.956.009-2.812.318a2.72,2.72,0,0,1-1.2.293c-1.1-.191-1.638.733-2.412,1.039a7.127,7.127,0,0,1-2.163.294,6.958,6.958,0,0,0-2.319.343,3.77,3.77,0,0,1-2.913.135,5.035,5.035,0,0,1-1.415.735c0-.009.01-.018.014-.028-.7-.284-1.728.13-2.2-.692l.005-.008a6.9,6.9,0,0,0,1.51-.115,7.114,7.114,0,0,1,1.47-.119,2.279,2.279,0,0,1,.614.227c.23-.608.888-.5,1.308-.816a14.655,14.655,0,0,1,1.2-.943,6.228,6.228,0,0,1,1.507-.63,6.4,6.4,0,0,1,1.168-.05c.787-.062,1.573-.149,2.357-.216a2.007,2.007,0,0,0,1.639-.761l-2.011-.778c-.2.087-.408.173-.8.338l-1.262-.4c-.771.445-1.216,1.447-2.42,1.176a2.063,2.063,0,0,0-1.078.223,2.518,2.518,0,0,1-1.008.241,1.809,1.809,0,0,0-.684.136c-.384.128-.762.256-1.1-.064l-.443.186a5.371,5.371,0,0,1,.849-1.257l2.283-.89c.014-.466-.275-.561-.638-.484-.443.093-.887.261-1.33.368-.081.02-.161-.1-.241-.153l1.852-1.832c.565.063,1.16.131,1.977.223.053-.618.09-1.038.121-1.4-.722-.186-1.479.177-1.934-.349-.568.221-1.136.442-1.7.707.128,1.264.128,1.264-.993,1.772-.037-.224-.22-.282-.413-.347-.247-.083-.51-.175-.5-.635.655-.256,1.286-.5,1.909-.79-.056-.393-.107-.741-.18-1.232L299,18.047l-.481-.847-.767.262-.634.988-1.533.6c-.117-.347-.241-.72-.421-1.254l1.963-.876c-.014-.385-.029-.8-.044-1.24l-2.354.507a4.538,4.538,0,0,1,2.688-1.462c.614.282.2,1.118.7,1.657a2.6,2.6,0,0,0,1.624-.411,3.75,3.75,0,0,1,1.476-.456l.562.307c.552-.414.326-.8.2-1.183-1.088-.009-2.164-.037-2.483-1.409l-2.09.485.91-1.6.781.285c.6-.364.25-.755.243-1.128a1.866,1.866,0,0,0-1.588.248,3.117,3.117,0,0,1-1.265.359c.2-.441.334-.724.5-1.08l-.722-.751c-.391-.708,1.212-1.675.183-2.279a2.616,2.616,0,0,0-1.254.313,2.528,2.528,0,0,1-1.5.295c1.056-.86,1.722-2.069,3-2.341l.843.368.918-1.452c-1.085.1-1.907-.589-3.181.173l-.916,1.13L292,5.993c.66-1.1,1.817-.676,2.583-1.622-.015-.261-.033-.588-.052-.935a2.706,2.706,0,0,1-1.168-.071,2.024,2.024,0,0,0-1.722.173.783.783,0,0,1-.586.97c.089.478-.107.8-.561.856-.114-.365.081-.688.561-.856l-.1-.7c-.338.132-.676.28-1.016.385-.087.027-.268-.068-.263-.124.018-.184.065-.485.168-.546a6.757,6.757,0,0,1,1.008-.415l-.261-1.771C289.375.783,289.3,2.4,288.4,2.55l-1.3-.2c-.2-.522.419-.877.481-1.349a.741.741,0,0,1-.084-.058.281.281,0,0,0-.178-.083Zm-1.468,2.413c.146-.848.837-.624,1.261-.925-.245.71-.291.845-.809.9C286.161,3.257,286.014,3.264,285.832,3.273ZM278.213,5.56c.021-.183.086-.5.18-.539a4.976,4.976,0,0,1,.931-.246c.015.15.031.3.047.451-.3.161-.6.339-.905.471a.068.068,0,0,1-.021.005C278.362,5.711,278.206,5.614,278.213,5.56Zm7.862-.221a3.123,3.123,0,0,1,.43-.4c.025-.016.064,0,.106.027.021.013.042.029.065.045s.061.044.088.06c-.137.142-.275.285-.407.423Zm3.833.8a8.01,8.01,0,0,1,.59-.772c-.038.391.037.8-.27.831A.77.77,0,0,1,289.908,6.137Zm-38.464,6.768a3.028,3.028,0,0,1,.431-.4c.025-.016.064,0,.107.027.021.013.043.029.064.045a1.007,1.007,0,0,0,.088.058l-.408.423Zm93.731-8.257.179-.547c.06.033.157.06.211.094.025.016.04.033.039.052a2.884,2.884,0,0,1-.146.554Zm5.16-.938a3.989,3.989,0,0,1,.605.48c-.166.02-.341.068-.479.082C350.22,4.3,350.1,4.216,350.334,3.711ZM247.371,14.384a.98.98,0,0,1,1.366-.424c-.342.426-.627.732-.888.757C247.682,14.734,247.526,14.637,247.371,14.384ZM354.556,3.957c.059-.178.118-.362.179-.547.061.033.157.06.21.094.025.016.041.033.039.053a2.845,2.845,0,0,1-.145.554Zm8.127-.612c.189.129.377.257.3.473.1-.009.2-.025.288-.041.427-.071.728-.131.418.523-.188-.129-.377-.257-.3-.473-.1.01-.2.026-.288.041s-.177.03-.253.038C362.574,3.932,362.44,3.859,362.683,3.345ZM357.7,5.681c-.022-.016-.043-.031-.064-.044l-.025-.014.407-.422c.107.058.2.1.282.153a3.028,3.028,0,0,1-.43.4.04.04,0,0,1-.018.006C357.818,5.763,357.761,5.722,357.7,5.681ZM236.431,19.419l.818-1.353,1.652-.644,1.7.351c-.264.41-.323.583-.4.615-1.12.452-2.24.9-3.365,1.3l-.022.005C236.7,19.708,236.557,19.51,236.431,19.419Zm-3.132-.926c.065-.108.136-.3.194-.307a1.844,1.844,0,0,1,.5.038l-.208.345ZM355.881,8.381c-.38-.2-.772-.247-.808-.448-.092-.508-.41-1.009.041-1.669a.909.909,0,0,1,.181.087c.582.368.278,1.252.306,1.825.1-.009.2-.025.289-.04.427-.071.728-.13.418.522A4.759,4.759,0,0,0,355.881,8.381Zm-129.6,11.458c-.021-.015-.043-.031-.063-.044l-.025-.014.408-.423.283.153a3.065,3.065,0,0,1-.431.4.041.041,0,0,1-.018.006C226.4,19.921,226.339,19.88,226.282,19.839Zm3.661.7a1.662,1.662,0,0,1,2.091-.815,1.943,1.943,0,0,1-1.343.935A1.588,1.588,0,0,1,229.943,20.543ZM358.8,8.017l.209-.346a1.711,1.711,0,0,1,.285.387c.021.052-.116.207-.182.315C359.011,8.252,358.906,8.132,358.8,8.017Zm9.6-.984a.353.353,0,0,1,.219.022.122.122,0,0,1,.054.084ZM360.2,8.32l.209-.345.482.076c-.065.108-.136.3-.195.307l-.038,0A2.225,2.225,0,0,1,360.2,8.32ZM234.4,21.028c.066-.108.136-.3.2-.307a1.832,1.832,0,0,1,.5.039c-.066.108-.136.3-.194.307l-.037,0A2.194,2.194,0,0,1,234.4,21.028ZM371.38,8.609a.5.5,0,0,1-.155-.136l.514-.054-.127.188ZM222.958,23.926c1.517-.886,1.647-.947,2.042-.7.037.023.075.049.118.077a2.109,2.109,0,0,1-1.318.682A2.709,2.709,0,0,1,222.958,23.926ZM373.047,8.866l.024.01c.664.485.76,1.181.293,2.107C372.684,10.5,372.578,9.8,373.047,8.866ZM222.707,26.259a2.9,2.9,0,0,1-.565.66,2.6,2.6,0,0,1-.93,1.754c-.475-.341-.576-.775-.037-1.378a1.377,1.377,0,0,1,.917-.151C222.164,26.541,222.034,26.019,222.707,26.259Zm68.509-5.878c.065-.107.136-.3.194-.307a1.81,1.81,0,0,1,.5.038l-.209.344Zm-72.123,9.7c.022-.183.086-.5.18-.538a5.07,5.07,0,0,1,.931-.247q.024.226.046.452c-.3.161-.6.339-.9.47a.072.072,0,0,1-.022.005C219.24,30.231,219.086,30.134,219.093,30.08Zm79.673-7.522a1.231,1.231,0,0,1-.586.513C298.2,22.65,298.238,22.37,298.766,22.558Zm-.615.885c0-.024.006-.049.008-.073l.863.668-.854,1.414-.633.165a.537.537,0,0,0-.352.059A5.964,5.964,0,0,1,298.151,23.444ZM219.676,34.919l.209-.345.481.076c-.065.108-.136.3-.194.307l-.037,0A2.189,2.189,0,0,1,219.676,34.919Zm77.137-7.212a.072.072,0,0,1,.01-.054c.11-.024.217-.051.325-.086.053.062.107.122.16.181l-.209.345A1.661,1.661,0,0,1,296.813,27.708Zm111.656,1.73c-.132-.3-.247-.572-.383-.884-1.692-.653-3.4-1.311-5.11-1.982-.068-.027-.071-.182-.265-.73l6.9,2.662.785-.329,4.024,1.553a2.657,2.657,0,0,1,.512-.209c.074,0,.15-.012.226-.019a1.586,1.586,0,0,1,.653.019c6.2,2.172,9.89,3.686,11.613,4.777h0c.1.066.2.13.292.193-1.676.044-2.744-1.051-4.159-1.186l-.776.326-2.572-.993c-.844.077-1.239.111-1.571.142-.238-.447-.413-.776-.589-1.1-.586.065-1.08.129-1.574.173-.576.051-1.15.085-1.794.131.067-.545.114-.928.179-1.458l-1.119-.224.3.982c-.119.05-.244.148-.318.126-.585-.175-1.16-.373-1.828-.6-.191.051-.408.174-.641.236a7.338,7.338,0,0,0-.781-.529c.009-.312.019-.649.028-.986l-.9.344Zm-197.576,21.5a4.1,4.1,0,0,1,3.152-1.229,4.261,4.261,0,0,1-2.49,1.214A4.5,4.5,0,0,1,210.892,50.941Zm-2.374-.188a1.229,1.229,0,0,1,.127.071q.668.423.081,1.333Q207.879,51.744,208.519,50.753Zm-3.067.919c-.022-.016-.043-.031-.064-.044l-.025-.014.408-.423.282.154a3.028,3.028,0,0,1-.431.4.04.04,0,0,1-.018.006C205.565,51.754,205.508,51.713,205.452,51.672Zm-4.874,1.192a2.761,2.761,0,0,1,.146-.554l.282.154c-.059.178-.119.362-.179.547C200.738,52.963,200.573,52.927,200.577,52.864Zm10.873.453c.3-.876.3-.876,1.261-.925-.146.849-.837.623-1.261.925-.06.5.493.951-.206,1.5C210.806,54.007,210.806,54.007,211.451,53.317Zm-4.4,7.711a1.207,1.207,0,0,0,.469.249l1.206.51c.548-.082,1.1-.683,1.464-.469l-.649,1.6c-1.416.553-2.77,1.084-4.127,1.6-.053.02-.115-.024-.21-.089-.027-.019-.057-.039-.091-.06s-.061-.037-.095-.056l.828-1.495c.751.454,1.309.74,1.861-.276a1.778,1.778,0,0,1,.051-1.033c-.1.01-.2.026-.291.041s-.174.029-.248.037C206.942,61.616,206.807,61.544,207.051,61.028Zm-5.125,10.954c.3-.162.6-.339.9-.472a.233.233,0,0,1,.175.045c.046.03.082.066.079.092-.023.184-.087.5-.181.539a4.969,4.969,0,0,1-.931.246Zm1.892,8.439c.46-.97,1.327-.787,1.928-.959.072-.6-.058-1.126.615-.885-.164.236-.328.472-.357.531-.271.461-.406.906-.605.99a4.178,4.178,0,0,1-1.082.447A.742.742,0,0,1,203.819,80.422Zm-1.652,2.949a2.844,2.844,0,0,1,.146-.554c.06.034.157.06.211.094.025.016.04.033.039.052a2.814,2.814,0,0,1-.146.555C202.329,83.469,202.163,83.434,202.167,83.371ZM502.558,57.488l.138-.181c.129.09.258.181.386.272l-.2.232ZM200.231,90.307l1.664-1.218.508-1.025a11.432,11.432,0,0,0,1.528-.662c.029-.017.057-.036.084-.056.045.117.085.222.122.317-.528.83-1.192.695-1.7,1.053l-.83,1.371a1.055,1.055,0,0,0,.366.2,1,1,0,0,1-.512.5ZM203.7,89.02l1.125-.438a4.93,4.93,0,0,1-.322.456A5.1,5.1,0,0,0,203.7,89.02ZM313.79,78.411a2.8,2.8,0,0,1,.146-.555l.282.153c-.059.178-.119.363-.178.547C313.951,78.509,313.786,78.473,313.79,78.411Zm-4.6.553a2.163,2.163,0,0,1,.245-.049l-.2.175C309.225,79.047,309.21,79,309.194,78.964ZM513.442,62.8c0-.009.043-.054.066-.083l.105.115-.077.092A.848.848,0,0,1,513.442,62.8Zm2.547.76c-.009-.015.013-.053.023-.081l.074.02-.027.084C516.033,63.58,516,63.582,515.988,63.564Zm-.8.106.052.068-.09.022Zm-2.834.7.134.012-.1.069Zm1.724.861c.025-.075.043-.181.086-.2s.126.016.191.03c-.026.069-.042.176-.083.2a.085.085,0,0,1-.032.009A.729.729,0,0,1,514.08,65.227Zm4.794.014c.116.27.344.806.68,1.595l-4.618,1.64,1.644-2.159.654-.017c-.082.32-.164.644-.247.968l.525.243Zm1.079.338.359-.171.317,1.229-.325.156Q520.129,66.188,519.952,65.58Zm-8.855.9.059-.035-.01.07Zm17.885-.737a1.735,1.735,0,0,1,.13-.341c.091.07.191.116.182.147a1.456,1.456,0,0,1-.151.282C529.086,65.8,528.978,65.779,528.982,65.746Zm-16.25,2.916,1.055-1.471.517.345-.995,1.513Zm9.365-2.021a.814.814,0,0,1-.125-.126,2.04,2.04,0,0,1,.18-.126,1.035,1.035,0,0,1,.034.189c0,.014-.066.062-.085.064Zm5.035-.481.582-.288.085.223-.571.363Zm-17.744,2.12-.008.013Zm11.542-.291a9.363,9.363,0,0,1,1.7-.741q.11.383.22.765l-1.917,1.108C520.926,68.729,520.8,68.075,520.931,67.989Zm-3.461.665,1.414-.141-.007.013,1.526.079-.592.929ZM524,68.145c-.29.19-.552.361,0,0Zm-.017.005-.075.023Zm-8.559,1.04,1.615-.275c.023.159.047.317.069.477-.033.239-.069.48-.152,1.063l-.69-1.26-.744.573Zm-1.752,1.523c-.074-.248.31-.727.653-1.434.235.776.349,1.155.6,1.978C514.27,71,513.749,70.968,513.674,70.713Zm6.56.179h0C520.286,70.848,520.317,70.824,520.234,70.892Zm-5.22.676c.022-.018.05-.05.068-.048s.026.039.038.06l-.069.053Zm5.677-.225c.046-.059.084-.141.139-.168s.11.02.166.035c-.03.072-.069.19-.091.192h0A.661.661,0,0,1,520.69,71.343Zm-4.405.529c.016.114.029.2,0,0l0,.02Zm-.017.129h0Zm-1.293.462c.007-.1.109-.2.17-.305l.273.179-.241.334C515.089,72.588,514.969,72.533,514.975,72.464Zm2.638.082h0C517.728,72.418,517.82,72.316,517.614,72.546Zm-.256.113.2-.072-.174.28C517.378,72.8,517.367,72.727,517.357,72.658Zm.035.231,1.247.581-.765.517Q517.634,73.438,517.392,72.89Zm2.133-.2.06,0-.043.056Zm-3.237.844c.017.121.033.23,0,0v0Zm-1.938.618a8.641,8.641,0,0,0,1.089.807c.227.121.568.037.838.1.244.057.67.2.652.285a1.786,1.786,0,0,1-.48.957.755.755,0,0,1-.807-.111,3.9,3.9,0,0,0-.537-.606.57.57,0,0,0-.2-.186l.11-.121a1.579,1.579,0,0,1-.748-.832ZM179.993,113.187a2.2,2.2,0,0,1-.787-.452l1.228-2.479.88-.4c.185-.374.374-.757.565-1.14l.8-.362.545-.711c.67-.022,1.216-.04,1.824-.061a7.23,7.23,0,0,1-.437,1.206,3.2,3.2,0,0,1-.654.918l-1.431-.073c.829.883.214,1.481-.129,2.064l-.82.424a3.318,3.318,0,0,0-.367.739,1.7,1.7,0,0,1-.9,1.128C180.205,113.722,180.1,113.454,179.993,113.187ZM516.927,76.946c.016.1.031.192.047.289l-.487.173L516.2,77.3ZM179.07,112.873a4.547,4.547,0,0,1-.439.976,2.307,2.307,0,0,0-.421,1.27l.047.035-.98.382c-.222.337-.435.661-.648.983l-.6-.324a.781.781,0,0,0-.585.018l.1-.2,1.7-.759-.225-.843.081-.006C178.124,114.3,178.028,113.09,179.07,112.873Zm-.216,1.988c.129-.274.262-.553.625-.324.024.016.049.033.075.053,0,.021-.006.043-.01.064l-.727.283Zm-3.474,4.316.684-.266c-.141.249-.279.491-.419.733-.032.056-.18.058-.342.106C175.329,119.553,175.354,119.364,175.379,119.176Zm-12.7,2.643,1.153,1.541a1.4,1.4,0,0,0-.5,1.061l-.064.051a4.65,4.65,0,0,1,.028.983,1.333,1.333,0,0,1-.2.449,2.478,2.478,0,0,0-.143.271Zm.95,1.157,1.168-.562c-.281.329-.639.615-.931.912Zm-41.188,4.045c0-.036.043-.086.068-.13l.129.018-.116.207C122.5,127.085,122.447,127.06,122.444,127.021Zm39.088-3.978.512-.039c-.059.427-.116.853-.174,1.28l-.393.042Q161.5,123.685,161.532,123.043Zm-40.506,5.8-.019-.013-.013-.008c.026-.04.044-.1.076-.113.015-.009.04.009.066.026s.022.015.033.021c-.026.04-.047.1-.08.111l-.007,0A.108.108,0,0,1,121.026,128.845Zm41.288-3.588c.086-.038.194-.124.254-.1s.067.147.1.227c-.076.071-.148.134-.221.2Zm-.746.4-.1,1.026a6.417,6.417,0,0,1-.363-.935Zm-42.078,5.213c.046-.022.1-.065.136-.057a.039.039,0,0,1,.014.006c.028.018.045.064.068.1l-.221.1C119.489,130.972,119.489,130.923,119.49,130.874Zm43.5-4.22a2.565,2.565,0,0,0,2.06.38l-.034.294-2-.293Zm-1.831,3.283.008.021-.009.1-.088.011Zm-46.382,6.784a.407.407,0,0,1,.084.019.021.021,0,0,1,.009.011c.011.025-.02.074-.045.119C114.812,136.822,114.8,136.772,114.78,136.722Zm-26.746,5.566.532-.124L88.99,141l.4.1q-.267.693-.535,1.388l-.729.36C88.1,142.659,88.066,142.473,88.034,142.288Zm73.241-7.712a1.62,1.62,0,0,1,.153-.128l-.083.209ZM93.12,143.54q.152-.746.3-1.491l.568.047q-.2.739-.4,1.476Zm112.813-11.714a2.333,2.333,0,0,1,.454-.145l-.572.362C205.847,131.936,205.886,131.847,205.933,131.826ZM188.9,134.081l-.068.267-.29-.028C188.664,134.242,188.785,134.164,188.9,134.081ZM82.214,145.037a2.34,2.34,0,0,1,.255-.09c.008.094.048.2.012.28-.022.049-.157.062-.241.091Zm107.283-9.8c-.056-.024-.061-.146-.089-.225.076-.063.148-.118.221-.173l.116.32a1.217,1.217,0,0,1-.211.083A.077.077,0,0,1,189.5,135.234Zm-82.119,9.527.47-.036-.071.764-.627.867Q107.264,145.558,107.378,144.76Zm82.006-7.807a.731.731,0,0,1,.09-.1,1.274,1.274,0,0,1,.154.127c-.036.041-.088.106-.094.107A1.8,1.8,0,0,1,189.385,136.953Zm-88.261,12.027.14-.266a.658.658,0,0,1,.163.19c.01.023-.057.134-.073.135h0A1.262,1.262,0,0,1,101.124,148.981ZM87.766,158l.535-5.767.405-.034-.535,5.768Zm12.982-6.884.473-.145c0,.353,0,.706.007,1.059l-.377.107C100.816,151.8,100.782,151.456,100.747,151.116Zm-37.473,4.476a1.046,1.046,0,0,1,.212-.118c.016-.005.041.062.062.1a1.831,1.831,0,0,1-.215.118h0C63.32,155.692,63.293,155.626,63.274,155.593Zm26.8-2.349c-.006-.071.073-.166.114-.249l.2.115c-.043.089-.088.169-.133.249C90.192,153.321,90.082,153.3,90.077,153.244Zm12.185-.1.325-.415c.245.228.489.459.734.688-.083.105-.164.211-.246.316C102.8,153.537,102.532,153.34,102.262,153.143Zm-12.8,4.171q.182-1.133.364-2.265l.6.018q-.274,1.121-.546,2.242C89.736,157.311,89.6,157.314,89.46,157.314Zm11.249-3.26.219-.025-.073.789-.219.025Zm1.692.4.1-.015-.049.1Zm-36.572,5.215c.016-.2.783-.584,1.2-.671.145-.03.478.588.413.9-.735,3.523-1.53,7.045-2.309,10.566C65.349,166.87,65.545,163.276,65.829,159.672Zm1.911,3.394c.032-.083.075-.163.115-.244a.64.64,0,0,1,.114.048,2.569,2.569,0,0,1-.109.245A.814.814,0,0,1,67.741,163.066Zm11.3,11.689c.861,2.85,1.579,4.334,1.721,5.986.107,1.247-.523,2.71-.826,4.076l-.715-.674-.586,3.021-1.478,2.228,1.234-.975-.808,4.165c-.385,2.55-.772,5.1-1.176,7.768.134.014.31.045.3.083-.221,1.548-.534,3.1-.829,4.651-.214-.087-.429-.174-.087-.035l-1.205,13,.376-.128.1,1.461-.555.929-.024-.015-.02.088q-1.184,1.983-2.373,3.964c-.015-3.376.154-6.794.318-10.2a6.247,6.247,0,0,1,1.3-3.407L75.333,193.3l.936-.116c-.034.838-.066,1.675-.117,2.946l1.226-3.725-1.029-.776c.194-.994.416-1.989.57-2.982.088-.572.068-1.143.174-3.249l-3.66,9.029-.017-1.494,1.125-1.866-.314-.288-.826.87c-.048-4.228-.088-7.767-.128-11.306l1.379-.484q.809,2.938,1.618,5.875c0,.006,0,.013,0,.02l.014.014-.009-.034,2.69-10.669a.521.521,0,0,1-.1.041c-.009-.039-.036-.088-.021-.118s.074-.037.114-.055c0,.027.018.057.021.085l-.012.047a.024.024,0,0,0,.008-.01.067.067,0,0,0,0-.036Zm-6.868,2.775.262,0-1.555,16.78-2.8,2.95.855-2.171L57.626,209.912l.008.008-1.781,2.541,1.017-5.567-.017.018a30.017,30.017,0,0,1,1.443-5.721c.659-1.444,2.1-2.617,3.189-3.91.418.9.836,1.8,1.08,2.331.216-.464.638-1.368,1.059-2.272l1.186.723c.551-1.964,1.157-4.123,2.143-7.641.072,1.92.093,2.463.113,3.007l.737-.033q1-7.425,2-14.849l.444-.049c.316,2.386.633,4.772.871,6.574C71.4,183.008,71.788,180.269,72.171,177.53ZM66.9,187.645l.6-6.45.559-.055-.6,6.451Zm9.734-5.147c-.007-.023.06-.115.069-.113a1.332,1.332,0,0,1,.193.079l-.142.219A.548.548,0,0,1,76.633,182.5Zm10.284-.461,1.935,1.775c-1.217,3.158.347,1.944,1.948.754l.074-.055-.439,4.733-2.882.284.012.014c-4.933.889-.489-3.2-1.635-4.309l-.676,1.881c-.184-.541-.3-.883-.418-1.225v0q-.408.76-.818,1.52l-.51-.144,1.25-3.883,1.455-1.149-.055,1.284Zm5.459.678c0-.025.048-.059.075-.09.024.024.067.044.066.073s-.048.059-.074.091C92.418,182.765,92.376,182.745,92.376,182.716Zm4.186.134-.749,1.559,1.045-.473-.551,1.612,2.138-1.687-3.639,5.487-.149-.159-1.345,2.862q-.7-1.638-1.4-3.276l.011.013c-.148-1.578-.379-3.138-.408-4.74.9-.629,1.676-1.028,1.79-.338.065-.154-.119.285-.253.6l1.1-.042,1.3-1.167Zm6.473.491q0,.206-.01.41c-.807,1.5-1.194,2.228-1.58,2.954q.777-.945,1.555-1.894c-.02.833-.042,1.644-.071,2.442l-2.541,4.415.983-.387q-.426.516-.834,1.018l-.929-.7.009.01-1.65,1.117-3.1-3.318Zm-35.924,5.705.082.081-.12.049Zm42.808-3.209.411.372-3.994,4.725c-.025-.237-.276-.415-.418-.621a3.992,3.992,0,0,0-.707,1.035,6.727,6.727,0,0,1-.437,1.435l-.751.889.186-2,2.491-3.756.392.236q-.385.925-.769,1.85Zm-.743,7.666.448-1.293a6.64,6.64,0,0,1,.472-2.538c.877-1.278,1.779-2.539,2.692-3.792l.616.678-2.448,2.694,0-.014q-.6,1.447-1.2,2.895l1.542-1.41.616.81L109.65,193.8l-.766.357Q109.03,193.832,109.176,193.5Zm-1.345-6.832a1.6,1.6,0,0,0,.086-.141c.042,0,.1-.006.127.012l.009.008c.023.028,0,.1,0,.149Zm-35.7,3.906a1.3,1.3,0,0,0,.112-.115,1.228,1.228,0,0,1,.115.186c.005.013-.064.07-.1.107C72.213,190.7,72.17,190.636,72.128,190.576ZM50.7,193.436c.01-.25.019-.5.028-.749l.388-.032c-.05.255-.1.509-.151.764Zm61.664-4.58c.08-.279.16-.557.24-.836l.309.043-.23.836Zm-17.733,2.932a1.79,1.79,0,0,1,.16-.2,1.656,1.656,0,0,1,.1.209,1.525,1.525,0,0,1-.211.1h0C94.669,191.89,94.625,191.808,94.637,191.788ZM49.206,206.48l.964-10.4.753-.018-.96,10.361C49.71,206.442,49.458,206.46,49.206,206.48Zm62.78-15.519.542-.817.231.146-.544.821ZM54.874,195.84l.69-.042-1.741,18.783-.7.1Zm9.081,13.367c1.733-2.612,3.194-5.4,4.9-8.031a22.264,22.264,0,0,1,2.245-2.267,2.413,2.413,0,0,0,.523-1.3c.023-.31-.3-.577-.483-.892l1.262-2.094-.792,8.546-.017-.015c-.2,3.6-.269,7.194-.646,10.812a23.673,23.673,0,0,1-1.482,4.592l.364.05,1.2-3.314.569.073q-.525,2.913-1.051,5.827l.032.093-.055-.072q-.625,2.964-1.251,5.927-.082-.017-.168-.042l-.42.633-.361.01q.427-2.552.855-5.1l0,.008q-.173-3.077-.348-6.155h.011q.341-2.162.684-4.324l.008.009-1.036-1.471c-.721,4.178-1.369,7.934-2.033,11.783l.751-.643-.872,9.406L53.2,251.094c-.063-.258-.125-.513-.209-.856l-4.257,7.524c.275-3.575.5-7.145.754-10.719l-.015.015c.753-3.83,1.292-7.684,2.325-11.483a94.861,94.861,0,0,1,3.41-9l.826.081c0-1.936.01-3.872.015-5.92C58.7,216.9,61.38,213.089,63.955,209.207ZM45.637,199l.342-.076q.013.6.027,1.2l-.483.1Zm27.717-2.247c.023-.038.042-.094.071-.107s.069.018.1.031l-.118.176C73.391,196.823,73.373,196.79,73.354,196.756Zm44.779-1.617,1.487-1.857.1.273-.049.343-1.029,1.551ZM72.662,200.2q.139-.907.279-1.812l.273-.021-.17,1.835Zm38.946-4.513q.086-.368.172-.735l.366.027q-.148.379-.3.757Zm-.826-.059a.171.171,0,0,1,.119-.026l0,0a.827.827,0,0,1,.038.24l-.239.041A1.832,1.832,0,0,1,110.782,195.63Zm-2.921,1.957,1.511-1.645.477.489c-.53.5-1.056,1.012-1.6,1.488l-.005,0C108.194,197.926,107.987,197.7,107.86,197.587Zm4.285-1.122q0,.461,0,.921c.334-.138.687-.34,1.031-.514-.058,1.12-.116,2.261-.184,3.575l-1.118.574-1.232-2.109Zm2.21.075.052.008-.223,2.4-.451.067-.182-2.322A1.583,1.583,0,0,1,114.356,196.541Zm.832.253q.136.061.269.13l-.167.4Zm-42.6,5.84q.064-.468.127-.934l.252-.012c-.042.311-.086.623-.128.933Zm46-3.874.089-.087.014.113Zm-41.381,5.763q.156-.655.314-1.308l.3.014q-.144.655-.29,1.311Zm32.457-4.071,0,.062-.1.091Zm-.029.613q-.023.488-.046.977l-.361.135Zm-63.442,6.555.094-.023-.042.092Zm62.673-5.94.111-.029-.054.111Zm-60.073,6.789c.013-.065.133-.129.206-.194.043.084.119.17.1.247s-.138.131-.214.2C48.848,208.634,48.776,208.55,48.792,208.468Zm69.1-6.274c-.02-.012-.013-.068-.018-.1.035-.013.084-.044.1-.032h0c.02.013.013.068.019.1a.549.549,0,0,1-.087.031A.03.03,0,0,1,117.892,202.194Zm-69.324,7.9a.827.827,0,0,1,.237-.031.494.494,0,0,1-.009.135,2.252,2.252,0,0,1-.241.043Zm28.293-2.243c.1-.012.2-.025.2-.009a3.506,3.506,0,0,1-.035.539l-.352.042.052-.558.035,0Zm-29.669,3.725c-.006-.019.085-.113.1-.106a1.132,1.132,0,0,1,.206.116c-.069.078-.138.142-.206.206A1.1,1.1,0,0,1,47.192,211.572Zm.971-.051a.812.812,0,0,1,.242-.084c.019,0,.057.1.042.12a1.767,1.767,0,0,1-.19.2C48.226,211.675,48.195,211.6,48.163,211.521Zm29.966-2.57c.005-.046.01-.091.014-.137l.191.051c-.028.039-.054.1-.088.113l-.014,0A.343.343,0,0,1,78.129,208.951Zm-25.459,7.377.421-.024-.016.123-.525.749Zm-10.26,4.609q.249-1.191.5-2.383l.7.023q-.279,1.134-.559,2.268l-.112.115Zm24.916-.614a.8.8,0,0,1,.065-.3l.284.112-.143.283C67.452,220.4,67.338,220.382,67.325,220.323Zm17.346,4.993c.051.054.1.105.155.159l-.641.638-.059-.129ZM52.029,230.07a1.305,1.305,0,0,1,.228-.072c.018,0,.057.1.043.115a1.83,1.83,0,0,1-.194.2A2.311,2.311,0,0,1,52.029,230.07Zm21.3,2.584.087.04-.1.079ZM30.3,243.856l1.17-2.232.535.228-1.094,2.274C30.71,244.036,30.505,243.947,30.3,243.856Zm34.781-4.816.355-.169.161.5-.024.258-.315.157Q65.172,239.413,65.083,239.04Zm-.911,3.51.9-.919.275.333-.957.853ZM44.3,245.688q-.405,6.512-.822,13.026l-.012,0c-.067,4-.134,7.994-.2,11.848l-4.547,6.857-.761-1.48L28,290.958l-.221-.111,4.144-6.856-5.136,5.234L26.444,289l8.227-13.459-.6-.332L31.96,277.72l3.284-7.386-1.492.126.617-2.371-2.477,1.538c-.065-1.551-.5-3.142-.1-4.644a32.379,32.379,0,0,1,2.6-5.463l0,.023q2.925-5.282,5.848-10.563l.491.146c-.156.463-.313.924-.674,1.99Zm7,17.537a6.181,6.181,0,0,1,1.171-3.436c2.39-3.317,4.782-6.645,7.353-9.817,1.724-2.128,3.547-4.172,5.373-6.213l-.471,5.076a2.167,2.167,0,0,1,.427.111L62.1,253.552c.253-1.226.4-1.92.615-2.99l-2.253,2.413,3.535-7.269-.28-.13-2.4,3.992,0-.016-2.962,5.86.845-.068-2.029,2.285-.235-.264-7.666,11.562c-.384-.023-.143-.008.1.007-.653,1.2-1.3,2.4-1.979,3.58a5.267,5.267,0,0,1-.2-1.726c.058-.551.127-1.1.2-1.655Zm-9.717-15.15.89-1.343.394.219-.724,1.361Zm-4.457,1.706,1.1-1.821.373.173-1.128,1.843C37.35,249.912,37.236,249.846,37.122,249.782Zm20.952-3.246.688.361L55.582,253l.1-.039-.09.066-3,5.392-.532-.173,1.191-3.317-.344-.108a24.252,24.252,0,0,1-1.808,4.519c-.927,1.43-1.9,2.831-2.894,4.221.07-.543.131-1.086.181-1.627q.073-.786.14-1.57l.186-.082-.013,0L51,256.322l-.009-.005,4.41-5.094-.009.005Q56.733,248.883,58.075,246.535ZM29.3,251.7c-.018,0-.032-.119-.015-.133a1.691,1.691,0,0,1,.23-.142,2.29,2.29,0,0,1,.038.261l-.069.007-.017,0A.839.839,0,0,1,29.3,251.7Zm.927.484a.57.57,0,0,1-.15-.173l.235-.158a1.28,1.28,0,0,1,.031.245c0,.023-.086.084-.111.087ZM25.3,268.125l11.108-16.753.525.371-11.074,16.7Zm4.34-14.6a.678.678,0,0,1-.181-.124l.087-.131a1.678,1.678,0,0,1,.177.136.618.618,0,0,1-.083.119Zm-3.854,1,.09-.038-.025.1Zm2.78.351c.041-.076.159-.119.242-.175.021.087.083.188.051.255s-.155.115-.249.169C28.6,255.034,28.536,254.93,28.569,254.869Zm23.551-2.158a.891.891,0,0,1,.142-.277c.051-.045.157-.009.242,0-.023.1-.046.2-.068.3ZM21.46,265.98l6.132-9.249.6.362-6.108,9.213Zm38.39-9.331,1.122-2.022c.171.078.34.156.511.233l-1.3,1.959ZM76.73,254.8l.138.935-.119-.045Zm-57.173,6.815.725-1.093c.114.1.228.192.342.288l-.826,1.011Zm57.34-5.68c.078.525.1.647.113.768l-.238.071c0-.1,0-.2-.011-.507ZM19.672,269.1l.476-.649.214.124-.382.712Zm32.365-2.111-.075-.049-.027-.017.329-.5c.09.06.181.12.271.181a4.272,4.272,0,0,1-.331.473l0,0A.614.614,0,0,1,52.038,266.987Zm1.737-.295.079-.122a.346.346,0,0,1,.108.017.044.044,0,0,1,.01.009c.019.026,0,.087,0,.132ZM49.5,271.2c.2-.414.4-.828.608-1.243l.286.119-.63,1.235Zm-7.12,2.216.863-1.47-.011.643-.635.957Zm1.575.882.323,2.877-1.83,3.1c-1.467,2.716-2.935,5.43-4.247,7.857l1.059-.278a17.094,17.094,0,0,1-2.022,3.809c-1.225,1.347-2.828,2.313-5.466,4.383l.119-.251c-.021.022-.052.042-.075.064-.022-.032-.067-.064-.06-.095s.063-.061.1-.092c.019.026.055.054.06.078s-.014.03-.022.045a.08.08,0,0,0,.022-.033.029.029,0,0,0,0-.012l4.843-10.189-5.3,4.331-.85-.981,9.55-11.918c-1.073,3.373-1.753,5.516-2.922,9.194,1.318-1.836,1.717-2.313,2.024-2.837.533-.909,1.009-1.847,1.509-2.772l1.394-.235,1.447-3.675-1.869,2.555-.719-.485,2.171-3.274-.009.542.345-1.05Zm-2.326.8c-.017-.022.006-.079.011-.12l.115-.062c-.006.066-.012.133-.018.2C41.7,275.109,41.646,275.119,41.629,275.1Zm20.44.335c.01-.046.007-.113.033-.134s.084,0,.127,0l-.031.141Zm-30.841,3.4.07.091-.124.034ZM60.5,276.987l.381-.646.222.12-.386.643ZM26.254,285.8l3.8-5.735.44.276-3.8,5.736Zm10.211-6.07.229-.1c0,.046.025.124.012.132a1.7,1.7,0,0,1-.222.111A.946.946,0,0,0,36.465,279.728Zm3.939,6.529a1.1,1.1,0,0,1,.211.035h0a.2.2,0,0,1-.022.129,1.353,1.353,0,0,1-.224.1C40.377,286.434,40.386,286.35,40.4,286.257Zm8.506.724-.02.007,2.262,1.432-2.445,3.687-1.755-5.9C47.388,286.087,48,286.276,48.91,286.981Zm-4.971.259.53.088q-.16.816-.321,1.632l0,0,1.174-.869-.682,1.88c.878-.241,1.033-1.747,1.456-2.789l-.5,5.349-2.257.567c.048-.22.166-.754.347-1.578l-3.267,4.488Zm-9.057,1.347a.193.193,0,0,1,.017-.125.807.807,0,0,1,.225-.108c-.008.082-.017.163-.026.245A1.587,1.587,0,0,1,34.882,288.586Zm20.594-1.366q-.384,1.5-.769,2.991l5.184-1.646.656,1.632-.015.005,2.409-.4c-.133.875.006,1.928-.446,2.594q-.252.371-.509.74l-.611-1.8-.284,3.065q-.456.632-.928,1.269l-.072-.243-.266.7-.5.671-.415-.6-.426,1.721-.468.621c-.355-1.684-.534-2.532-.613-2.912l-.908-.49-.188.618a.507.507,0,0,1-.48.183l-.118-.78-.344.341a8.5,8.5,0,0,1-.615-1.507c-.676-2-1.283-4-2.847,2.246l-.938-.814-.259-.243c-.22.019-.445.052-.671.085-.125.018-.251.037-.375.053l-.724-2.434c1.008-1.192,2.115-2.3,3.175-3.454l-.017.007Zm.951.771a.184.184,0,0,1,.108-.066h0a1.03,1.03,0,0,1,.115.17,2.346,2.346,0,0,1-.224.135A1.363,1.363,0,0,1,56.428,287.991Zm21.942-1.316q-.024.045-.049.1l-.031-.054ZM70.515,297.7l.876-9.455.546-.1.513,12.124-.536.514-.046.011-.28-5.026-.581,1.891Zm-59.493,6.791c-.3-.247-.693-.892-.574-1.068,2.167-3.184,4.4-6.323,6.624-9.471-1.691,3.318-3.369,6.643-5.1,9.944a1.69,1.69,0,0,1-.889.605A.087.087,0,0,1,11.023,304.491Zm54.7-14.307a3.663,3.663,0,0,1-.594,2.547,3.308,3.308,0,0,0-.091,1.173c.265-.12.608-.168.784-.37q1.19-1.373,2.366-2.759c.013.606.026,1.225.043,1.86l-.578-.735q-.756,4.6-1.512,9.2l-.087.029-.705.061q-.055-2.317-.114-4.631c-.179.884-.354,1.766-.773,3.884l-.89-2.627.207-.361-.362-.241-.034.046-.8-2.349Zm16.659-1.1,1.2-.566.327.547-1.291.651C82.54,289.5,82.463,289.29,82.385,289.079Zm1.057.984a1.3,1.3,0,0,1-.034-.259,2.3,2.3,0,0,1,.277-.024,2.276,2.276,0,0,1-.108.282c0,.007-.023.012-.046.014S83.447,290.077,83.442,290.064Zm-1.891.659.846.375-.684,1.14a4.149,4.149,0,0,0-.232-.35l-.615.783.076-.576.135-.132-.015.005Zm-6.97,6.884c.055-.74.844-1.568,1.294-2.355l.484-1.285q.095-.34.192-.681l.412.62.028.2-.795,2.563q-.13-.647-.261-1.295-.459,1.481-.917,2.958l.012-.011q.156,1.831.312,3.663l-1.048.955C74.365,301.163,74.449,299.388,74.582,297.607Zm5.318-4.494.229.056c-.086.255-.17.51-.255.766l-.33-.128.334-.673Zm3.067.4-.025.045-.007,0Zm-68.688,8.065c.02-.085.037-.171.065-.254a.815.815,0,0,1,.135.006,2.422,2.422,0,0,1-.07.254l-.006,0C14.382,301.59,14.317,301.582,14.279,301.579Zm62.944-5.855.149,1.051-1.066.434-.1-.495Zm-16.429,1.9-.011.118-.021-.07Zm16.259-.333.295-.033-.085.922-.295.029Zm-6.425,2.09a1.34,1.34,0,0,0,.021-.155l.208.069c-.033.044-.062.112-.1.126l-.013,0C70.708,299.426,70.666,299.393,70.627,299.38ZM5.649,306.027a.723.723,0,0,1-.1-.188c.039-.021.106-.065.116-.059h0a1.327,1.327,0,0,1,.1.19.746.746,0,0,1-.112.058A.007.007,0,0,1,5.649,306.027Zm69.967-5.978.355-.81.3.1-.362.806ZM56.656,310.2l.347-.523-.126.865ZM24.6,319.031,28,313.9l.323.2-3.4,5.128ZM607.923,264.88a12.2,12.2,0,0,0-2.586-2.4,6.793,6.793,0,0,0-1.026-.534c-1.255-.523-1.93-2.137-2.932-3.19-.364-.381-.458-.574.22-1.053l4.506-.374,2.812,2.66c-.028.736-.043,1.14-.057,1.536a6.633,6.633,0,0,1,2.2,1.2,12.459,12.459,0,0,1,1.346,2.852l2.264-.187,2.632,3.022-1.554.721a2.771,2.771,0,0,1-1.348-1.181c-.522-.713-1.019-1.411-2.2-1.118l-1.426,1.367C609.829,267.1,608.887,265.976,607.923,264.88ZM27.775,317.265q.6-1.04,1.2-2.078c.117.057.233.117.349.175L28.3,317.495Zm28.692-2.244c.008-.05,0-.112.022-.147s.088-.042.134-.06l-.024.238C56.556,315.041,56.512,315.03,56.467,315.02Zm-1.614.226.012,0c.042.027.053.147.076.227l-.209.157-.08-.314A.384.384,0,0,1,54.853,315.246Zm-28.139,3.919c.021-.088.017-.2.07-.259s.15-.019.228-.024c-.015.087-.031.173-.053.267Zm13.975-.789.054.084-.111.025Zm-26.081,4.267.21-.228c.052.06.159.127.144.178-.025.084-.128.156-.2.233A1.675,1.675,0,0,1,14.608,322.642Zm21.764-.036.465-.7c.057.038.114.074.17.111l-.465.7Zm1.709.356.1-.048-.022.1Zm-1,1.06,1.085-.166c0,.124,0,.247,0,.371l-1.084.282C37.084,324.346,37.084,324.183,37.085,324.021Zm-2.644,1.1.77-.826.249.246-.713.9Zm-16.768,3.757.419-1.169-.37-.325.453-.435.38.608q-.237.7-.472,1.4Zm15.661-1.784a1.337,1.337,0,0,1,.236.044h0a.219.219,0,0,1-.029.145.93.93,0,0,1-.266.1C33.294,327.284,33.314,327.188,33.333,327.094Zm-11.185,2.717.739-1.393.425.168q-.324.71-.649,1.419Zm23.094-1q-.014.405-.029.828l-.63.367-.213-.242ZM37.33,330.6l.19-.027-.1.108Zm4.354.306c.52-.179,1.045-.321,1.57-.461l-.015.326-1.029.569.019-.006-.7.29C41.58,331.373,41.6,330.931,41.684,330.9Zm-5.849,2.363,1.016-1.691.426.308-1.066,1.608Zm6.531-.207c-.086-.02.029-.575.051-.884l.756-.024q-.023.474-.045.945A2.669,2.669,0,0,1,42.366,333.06Zm1.316,30.314.567-1,.293.137q-.278.5-.555,1.006Zm32.852,4.094-.813.8.057.077-.245.256.459.03.4.53-.2.3a10.1,10.1,0,0,0-3.571.432l-.048.011,3.206-3.656C76.092,366.223,76.358,366.546,76.535,367.469Zm-5.451.67.106.72-.99,1.492c-.2.017-.4.027-.6.027Zm8.843-.573a1.931,1.931,0,0,1,.034-.245l.142.006-.05.249C80.008,367.573,79.927,367.576,79.926,367.566Zm26.645,6.423.159.392-.375.454.577,1.2-.017.214-.044-.015c-.08.575-.15,1.078-.222,1.588l.373.47-.688.5a3.606,3.606,0,0,0-.757-1.3c-.264.6-.506,1.143-.768,1.737a.888.888,0,0,0-.341-.166,1.457,1.457,0,0,1,.067-.63,1.356,1.356,0,0,0,.068-.5,5.723,5.723,0,0,0-.449-1.247l.183-.141c.108.474.18.789.252,1.1a4.524,4.524,0,0,0,.72-.891,17.5,17.5,0,0,0,.6-1.783l0,.015ZM83.531,384.347c-.038.234-.078.469-.118.708l-.4-.509.048-.079Zm-2.314,4.932.755-.625-.935-1.346.049-.211a.656.656,0,0,0,.487.256l.723-.029c-.034.363-.069.725-.106,1.1l.579.729-.063.01a2.344,2.344,0,0,0-.491,1.255,4.32,4.32,0,0,1-.279,1.012C81.175,390.8,82.133,389.774,81.216,389.278Zm457.5-47.18.04.017-.033.066C538.719,342.155,538.717,342.127,538.716,342.1Zm1.8,2.762a3.694,3.694,0,0,0-.321-.988l.223-.952a6,6,0,0,1,.561.378,1.139,1.139,0,0,0,.015.313.941.941,0,0,0,.31.2c.052.024.1.048.15.074q-.071.292-.139.582a1.11,1.11,0,0,0-.463.41Zm7.636-1.561,1.368.7-.833,1.681-.758-.46-1.2.375-.319-1.124.655-.054Zm-4.243.5.674.711h-.066a1.194,1.194,0,0,0-.4.04,1.485,1.485,0,0,0-.221.26,8.739,8.739,0,0,1-1.393.119ZM83.079,389.652c.007-.027.014-.054.02-.08l.429.541-.035.058c-.036.006-.069.011-.1.014C82.932,390.231,83.006,389.938,83.079,389.652ZM549.27,345.824l.8-.333.482-.972,1.647.839-.557,2.381-1.63.029c-.068-.524-.122-.932-.183-1.4l-.633-.385ZM83.742,390.993a1.357,1.357,0,0,1,.009,1.331,3.018,3.018,0,0,0-.181.78l.413.7c-.1.638.026,1.4-1.27,1.81l1.266.529a2.6,2.6,0,0,1-.057,1.051,7.191,7.191,0,0,1-.433,1.207l-1.512-.806c0-.2.007-.478.011-.829-.117-.169-.278-.4-.44-.638.094-.4.189-.81.281-1.2l-.485-.7.613-2.618a2.7,2.7,0,0,1,.971-.059Zm487.2-46.733c2.751-1.9,3.89.7,5.635.8.128.853.21,1.4.3,2,3.615-.3,7.113-.6,10.6-.848.255-.018.447.4.681.633a2.739,2.739,0,0,1-1.906.706,2.329,2.329,0,0,0-2.286,1.337l-2.046-1.2-.424.411-1.031-.627c-1.144.09-1.7.151-2.246.171-.724.025-1.443.017-2.557.025l-3.393-2.062c-.069.044-.138.084-.206.12C571.594,345.1,571.3,344.72,570.947,344.26ZM553.1,346.69l-.454-.612.1-.441.761.388-.419.7Zm36.678,6.35,2.663,1.619-4.735.393a2.941,2.941,0,0,1-1.5-1.563,3.946,3.946,0,0,1,1.643-.155,6.34,6.34,0,0,0,.944,0A2.527,2.527,0,0,0,589.776,353.04Zm-19.733,3.319,2.205-.89-.134-.389c.44.238.871.519,1.76,1.053l4.491-.372c.148.571.24.926.332,1.28.93.134,1.267-1.055,2.007-1.351l.731.853c.056.342.118.716.193,1.173l-1.342.737-3.325-2.023-1.589,1.575C573.82,357.37,571.117,359.108,570.043,356.359Zm28.3-1.176.459,1.347-.451.037-.847-.475C597.734,355.862,597.975,355.574,598.342,355.183Zm-4.234.489,1.016.618-.884.655C594.179,356.373,594.173,356,594.108,355.673Zm-12,3.644a5.2,5.2,0,0,1,1.469-.119l1.3,1.247,1.057-.087a1.421,1.421,0,0,1,.489.915c-.166.047-.353.133-.525.2l-.507.041c-1.2-.7-2.393-1.419-3.59-2.143ZM86.063,423.371a7.874,7.874,0,0,0-.858-1.195l.253-1.082-.6-1.724,1.364.1a.745.745,0,0,1,.1.634,1.277,1.277,0,0,0-.444.017q-.1.757-.21,1.509c.193.514.847.674.742,1.6l-.316.219C86.087,423.425,86.076,423.4,86.063,423.371Zm.885-1.473a4.359,4.359,0,0,0,.7.316,4.015,4.015,0,0,1-.031.521ZM81.622,426.6a3.031,3.031,0,0,1,.246-.531c.039-.055.2-.017.311-.022a2.992,2.992,0,0,1-.246.532.093.093,0,0,1-.068.028C81.795,426.618,81.7,426.6,81.622,426.6Zm.68,4.272c-.4-.394-1.256-.6-1-1.612.685-.079.842.539,1.128.929.113.154-.069.587-.147,1.091-.014.062-.033.331-.051.6C81.5,431.81,81.959,431.419,82.3,430.876Zm-7.8,5.562a8.26,8.26,0,0,1-.455-.775l.34-.364a3.617,3.617,0,0,1,.628.594c.051.075-.1.367-.206.533a.2.2,0,0,1-.129.046C74.61,436.48,74.529,436.47,74.506,436.438Zm-2.714,7c.124-.016.206-.027.238.011.811,1,1.608,2.009,2.444,3.064l-.52,1.632c-.456.031-.52-.707-.932-1l-1.367-.064a1.439,1.439,0,0,0-.565.018c.21-.831.485-.394.924-.118a2.173,2.173,0,0,1,.647-.9c.209-1.093-.457-1.079-1.4-1,.1-.544.2-1.079.295-1.614.042,0,.081,0,.118-.009S71.756,443.448,71.792,443.442Zm-11.914,8.463a2.934,2.934,0,0,1,.246-.532c.038-.055.2-.018.31-.022-.072.182-.145.364-.213.539Zm3.6,2.494c.088-.013.177-.026.193.009a2.252,2.252,0,0,1,.1.518l-.343.014c-.021-.172-.043-.35-.065-.528l.031,0Zm6.2,1.077c-.088-.852-.088-.852.827-1.359.229.754-.544.911-.826,1.36.159.431.9.525.455,1.307C69.35,456.348,69.35,456.348,69.678,455.477Zm-4.209.972c.08-.739.45-1.108,1.115-1.11q-.11,1.019-.96,1.1C65.575,456.446,65.523,456.449,65.469,456.449Zm2.145.82a2.926,2.926,0,0,1,1.861,2.347A2.927,2.927,0,0,1,67.615,457.269Zm-3.289,17.639.053-.379a1.657,1.657,0,0,1,.448.171c.044.032-.024.223-.04.342Zm-3.884,4.028c-.052-.075.1-.367.206-.532.033-.053.265-.07.307-.012a8.221,8.221,0,0,1,.455.775l-.342.365A3.642,3.642,0,0,1,60.442,478.936Zm.8,3.205c-.3-.027-.489-.267-.679-.506a.974.974,0,0,1,.953-1.158,2.343,2.343,0,0,1-.382,1.877,2.237,2.237,0,0,1,.04.794C60.436,483.076,60.9,482.684,61.237,482.142Zm108.752-8.127c.041-.029.081-.058.122-.089.018.08.036.157.053.232A1.714,1.714,0,0,1,169.989,474.015ZM59.823,485.237a1.567,1.567,0,0,1,1.423,1.419l-.151.017C60.592,486.723,60.522,486.618,59.823,485.237ZM548.445,439.17c1.552-.535,3.1-1.1,4.654-1.651.1.586.2,1.171.3,1.752.8.736,1.693.347,2.614-.045a3.743,3.743,0,0,1,1.937-.448c.222.331.512.764.84,1.256l-4.259,1.484-1.8-1.094a18.135,18.135,0,0,1-3.052,1.87,8.066,8.066,0,0,1-2.676.115c-.252.342-.51.692-.978,1.33l-4.171,1.1-3.585-2.178c-.257-.687-.048-.813.517-.987,1.557-.481,3.21-1.576,4.628-1.5a8.166,8.166,0,0,0,1.229-.031A16.813,16.813,0,0,0,548.445,439.17ZM173.283,476.915a2.993,2.993,0,0,1,.247-.533c.038-.055.2-.017.31-.021-.072.181-.145.364-.214.539ZM59.92,490.088c.088-.014.177-.027.194.009a2.214,2.214,0,0,1,.1.518l-.343.014c-.021-.172-.043-.35-.064-.528l.031,0Zm3.585.912c.879.059,1.286.572,1.234,1.557C63.861,492.5,63.454,491.985,63.506,491Zm4.08,1.772c-.044-.032.023-.223.04-.342a1.619,1.619,0,0,1,.448.172c.044.032-.023.223-.04.342A1.633,1.633,0,0,1,67.586,492.772Zm-2.633,1.7c-.044-.032.023-.223.04-.342l.461.134c-.02.142-.037.261-.054.38A1.636,1.636,0,0,1,64.952,494.471Zm4.089,2.883-.975-1.23c.069-.49.137-.981.208-1.488.178-.027.451-.152.523-.066.687.809,1.342,1.651,1.993,2.5.047.062-.018.233-.067.691Zm5.175,6.083c.772-.387.869.1.879.924C74.4,504.3,74.154,504.037,74.217,503.437Zm2.577,3.457a2.177,2.177,0,0,1-.1-.517l.343-.014c.021.171.042.35.064.528-.033,0-.073.008-.114.014l-.085.011C76.848,506.92,76.8,506.918,76.794,506.894Zm48.37,5.672a.089.089,0,0,1,.028-.051,2.424,2.424,0,0,1,.5-.211l-.053.379-.257.088A2.51,2.51,0,0,0,125.164,512.566Zm3.232,2.321c-.879-.356-1.491-1.081-2.379-1.429,0,0,0-.005,0-.008.949-.506,1.545.271,2.332.319,0-.01,0-.02.006-.03a3.447,3.447,0,0,1,.714,1.209A2.49,2.49,0,0,1,128.4,514.887Zm-4.915,1.809a5.672,5.672,0,0,1,.669-2.3.409.409,0,0,0,.26.2l.428.4c-.078.564-.148,1.06-.218,1.556l-1.18.212C123.453,516.74,123.468,516.718,123.481,516.7Zm13,6.367c-.037-.344-.074-.7-.113-1.062a1.732,1.732,0,0,0-.5-.248c-.415-.063-.846-.075-1.271-.107.042-.669-.388-1.017-.886-1.324-.623-.382-1.233-.78-1.861-1.158a5.254,5.254,0,0,1-.961-.524,4.317,4.317,0,0,1-.861-1.159,10.224,10.224,0,0,1-.392-1.3c-.149-.44-.778-.623-.567-1.235a3.124,3.124,0,0,1,2.389,1.318c.912,1.115,2.466,1.344,3.388,2.393.453.581.295,1.589,1.357,1.88.343.094.584.462.823.744.523.617.794,1.464,2.181,1.432a2.77,2.77,0,0,1-1.165.408C137.471,523.179,137.007,523.024,136.477,523.062Zm-20.984-6.283c-.044-.031.023-.222.04-.341l.46.134-.053.379A1.607,1.607,0,0,1,115.493,516.779Zm7.763.245a.893.893,0,0,1,.156.679C122.838,517.645,123,517.393,123.257,517.024Zm-28.9,7.188c-.051-.076.1-.368.207-.533.032-.053.265-.07.307-.012a8.066,8.066,0,0,1,.455.774l-.341.365A3.588,3.588,0,0,1,94.356,524.213Zm6.847,3.419a2.252,2.252,0,0,1-.1-.518l.343-.014c.02.172.042.35.064.528-.034,0-.074.008-.115.014s-.059.009-.085.012C101.257,527.659,101.214,527.656,101.2,527.632Zm49.513,25.011c.071-.182.144-.364.213-.539l.343-.015a3.043,3.043,0,0,1-.246.532.091.091,0,0,1-.068.028C150.89,552.657,150.789,552.64,150.716,552.643Zm9.75,2.19c.058-.747.664-1.043,1.081-1.437.166-.156.533-.038.988-.048.055,0,.3-.027.547-.059-.21.831-.485.394-.923.117-.406.476-.739,1.354-1.481,1.427A1.049,1.049,0,0,1,160.466,554.833Zm4.312.033.5-.174c-.017.119,0,.307-.055.343a2.469,2.469,0,0,1-.5.21Zm1.34.7c.02-.142.036-.26.053-.379a1.65,1.65,0,0,1,.448.172c.044.032-.023.223-.04.342Zm-7.881,1.54c.071-.182.144-.364.213-.539l.343-.015a3.011,3.011,0,0,1-.247.532.091.091,0,0,1-.068.029C158.41,557.12,158.31,557.1,158.236,557.106Zm4.044-.706c.089-.014.177-.026.194.009a2.209,2.209,0,0,1,.1.518l-.343.014c-.021-.172-.042-.35-.064-.528l.031,0Zm15.184,3.624a1.93,1.93,0,0,1,1.685-1.67,1.93,1.93,0,0,1-1.659,1.672Zm-11.585.3c.077-.216.323-.248.57-.279-.21.832-.485.394-.923.118-.077.216-.323.247-.57.279C165.167,559.612,165.441,560.049,165.88,560.326Zm6.41-.658.3.023a.174.174,0,0,1-.1.049A.323.323,0,0,1,172.289,559.667Zm3.363-.06a.683.683,0,0,1,.223-.052l.2.1-.018.212Zm52,.5a2.088,2.088,0,0,1-.748-.363c-.081-.048-.12-.152-.3-.39l-4.462-.34-.448-.6-7.649-.583c.532-.386.637-.517.713-.512,1.9.133,3.8.28,5.673.423.324-.209.6-.389.917-.594l1.253.1c.156.2.337.42.533.662l.635-.85a9.274,9.274,0,0,0,1.017-.127c.157.149.259.343.388.466.717.087,1.338.155,1.953.248.078.012.118.147.185.239l-.907.713c.433.107.781.192,1.1.272l.823-1.315c.517.305.983.572,1.439.852.39.242.768.5,1.223.8l1.239-.7,1.242.769,2.852.217c.2.269.315.426.443.6,1.294.469,2.935-.021,4.332.708-.118.016-.244.031-.377.044h0C238.533,561.055,234.379,560.819,227.654,560.108Zm104.209,4.3a1.236,1.236,0,0,1,.135,0l.4.533-.749.587C331.756,565.071,331.8,564.682,331.863,564.408ZM330.6,565.57l-.106,1.094c-.066-.044-.13-.09-.192-.139l-.49.152.031-.606A1.307,1.307,0,0,0,330.6,565.57Zm1.922.484.468-.451c.084.263.166.527.25.795l1.43-.786-.581.967-.378.377Zm-.895.4,2.833,3.3-1.645,1.076c.078-.543.161-1.117.244-1.7l.257-.052a3.326,3.326,0,0,0-.189-.421l.046-.319-.247,0a3.6,3.6,0,0,0-1.313-1.064C331.617,566.979,331.621,566.712,331.626,566.459Zm6.818.138c-.028-.046-.006-.132-.006-.2a.692.692,0,0,1,.22.038h0c.017.012-.028.128-.051.2C338.552,566.625,338.468,566.635,338.444,566.6Zm-.7-.007v0l.016.057Zm.02.035Zm.008.014h0Zm-3.874.715,2.579.219q-.058.517-.117,1.034l-1.351-.564s0,.009,0,.014ZM313.749,570.7l.487-.143q.01.141.019.282l-.51.072Q313.747,570.8,313.749,570.7Zm22.653-1.35c-.055-.127.491-.631.761-.962q.445.866.89,1.735l-.7.561A6.509,6.509,0,0,1,336.4,569.349Zm-9.838,1.32a1.158,1.158,0,0,1,.164-.067c0,.035,0,.069,0,.11l-.167.055C326.564,570.732,326.554,570.674,326.564,570.669Zm2.095-.107.062.056-.09.037Zm5.3.434,1.11-.889.173.267-1.092.916Zm-4.755.156c.011-.027.017-.069.034-.078s.049,0,.075.009l-.032.083Zm9.891-.692.024.024h0Zm-2.792.574a1.182,1.182,0,0,1,.191-.055h0c.015.009.039.078.029.089a1.405,1.405,0,0,1-.155.147A1.608,1.608,0,0,1,336.3,571.034Zm4.153,2.433.28-.214c.081.182.161.363.243.545l-.221.154Zm1.3,1.116c.018-.029.128-.007.2-.009a1.3,1.3,0,0,1-.06.3c-.013.03-.13.028-.253.049A1.728,1.728,0,0,1,341.753,574.583ZM310.918,23.822ZM445.2,25.336c.454.574,1.253.575,1.816.924.119.285.233.555.349.832l3.411,1.316c.043.769.649.94,1.53,1.256l1.117-.816c-.123-.223-.333-.656-.594-1.054-.2-.309-.465-.577-.826-1.014l-1.595-.615-2.789-1.077-.891.344a2.82,2.82,0,0,0-1.046-.286A1.375,1.375,0,0,0,445.2,25.336ZM479.358,43.23l-.3.6a1.013,1.013,0,0,0,.425.4,44.564,44.564,0,0,0,7.427,2.842c.228-.391.018-.5-.2-.6a.868.868,0,0,1-.224-.141,2.98,2.98,0,0,1-.417-.818l-1.085-.419-.332-.843-1.7-.657-.316-.8-1.124-.433ZM194.167,84.111a2.626,2.626,0,0,1-1.012,1.273,2.931,2.931,0,0,0-.958,1.109.822.822,0,0,1-.4.447c-.745.217-.983,1.157-1.8,1.249a1.866,1.866,0,0,1-.245.505,3.1,3.1,0,0,0-.161.282.783.783,0,0,0-.06.661c.962.106,1.32-.882,2.045-1.2.707-.308,1.421-.6,2.152-.9l.565-1.14.906-.413.857-1.729.862-.393.619-1.25-.616-.521C195.823,82.583,195.273,83.727,194.167,84.111ZM506.376,59.037l.007.005.007-.011Zm16.935,4.07h0l-.016-.012Zm6.023-.478.042,0-.012-.014Zm1.942,6.771.013,0,.007-.01Zm-381.24,43.909,0,0,.011-.014Zm-63.4,26.785,0,.022c0-.013.007-.027.01-.04Zm7.377-.4.009-.007-.014-.012C94.008,139.676,94.009,139.683,94.011,139.689Zm6.9,1.615.008,0-.018-.017A.22.22,0,0,1,100.906,141.3Zm-.966.407.017-.007,0-.018Zm492.723-4.281v0ZM94.658,189.189v0l-.015-.011Zm11.631.848.02-.006.014-.032Zm-5.9,1.633,0,.012.008-.014ZM76.4,200.376l0-.026a1.009,1.009,0,0,0-.138-.007C76.242,200.346,76.271,200.356,76.4,200.376ZM44.164,208.5l0-.012-.013-.014Zm-3.994,2.367h0l-.057-.207Zm33.547-.127-.4,4.312h.016l.4-4.337ZM24.629,252.947l.02-.006,0-.012ZM51.3,263.225c0,.01,0,.02,0,.03l2.557-3.856-.013-.008ZM37.953,275.93l.006.013.011-.016Zm-1.19,9.61-.009.018.031-.025Zm17.924,4.677.02,0a.009.009,0,0,0,0,0Zm-41.144,5.215c-.015.012,0,.071.02.141l.219-.292A1.567,1.567,0,0,0,13.542,295.433ZM67.653,291.9l0,0a.137.137,0,0,0,0-.015Zm3.935,3.874.01-.033-.013-.014Zm-56.525,32.9v.022l.019-.038Zm12.4,4.147.009-.018-.009-.013Zm49.365,40.4s0-.04.01-.1C76.836,373.188,76.834,373.217,76.833,373.219Zm0,0h0Zm29.521,1.617,0,0,0-.005Zm-31.44,41.275a3,3,0,0,0-.052.306,1.725,1.725,0,0,1-.129.532c.631.414.205,1.312.694,1.8a.628.628,0,0,1,.043.546,2.26,2.26,0,0,0,.074,1.339,2.083,2.083,0,0,1,.009,1.5c.685.783.389,1.983.994,2.858l.872-.19.309-1.319c-.143-.21-.3-.448-.472-.69l.427-1.826-.495-.725.281-1.2c-.418-.563-.831-1.1-1.227-1.659s-.051-1.555-.94-1.863A.924.924,0,0,0,74.914,416.111ZM252.031,575.767c-.712.065-1.394-.264-2.163.037.262.447.262.447,1.364.55l.528.661,3.093.235,1.767.135c.6-.223,1-.343,1.382-.522.488-.232.955-.513,1.21-.652l-.4-1.156c-.96-.095-1.591-.2-2.141.437l-3.782-.288Zm66-4.81.007.011,0-.012Zm-26.994,3.09-.148.634,1.251,1.635,1.246.1.8-.552,1.887.144.846-.58,1.2.092a4.355,4.355,0,0,1,.9-.524,1.136,1.136,0,0,1,.286-.028c.253,0,.5,0,.569-.431a49.909,49.909,0,0,0-8.22-.648A1.4,1.4,0,0,0,291.04,574.048Zm55.115-1.607v-.011l-.01-.007Zm-3.507,1.422c.7.293,1.412.578,2.111.88l.006-.023-2.354-1.443Zm-7.506.628.022,0h0Zm4.841,2.916.02-.007-.034-.019Z" transform="matrix(-0.809, 0.588, -0.588, -0.809, 864.226, 468.503)" stroke="rgba(0,0,0,0)" stroke-width="1" opacity="0.078"></path></svg>